M48
METRIC,LZ,000.000
;FILE_FORMAT=3:3
;TYPE=PLATED
;Layer: PTH_Through
;EasyEDA v6.5.9, 2022-07-21 16:41:51
;b4f09f4bc33d498599fb5b0af984a39b,0f63320d19d842adba92ba3d91eb0df2,10
;Gerber Generator version 0.2
;Holesize 1 = 0.305 mm
T01C0.305
;Holesize 2 = 0.889 mm
T02C0.889
;Holesize 3 = 0.901 mm
T03C0.901
;Holesize 4 = 1.200 mm
T04C1.200
;Holesize 5 = 1.270 mm
T05C1.270
%
G05
G90
T01
X051875Y013125
X060625Y012500
X053750Y015341
X059375Y015625
X051875Y019091
X061875Y017500
X059375Y018125
X051875Y022159
X060625Y021250
X064375Y026534
X053750Y024091
X059365Y024375
X059365Y026875
X066875Y027217
X051875Y027841
X061875Y026250
X061875Y035000
X051875Y036875
X059365Y033125
X053750Y033125
X059375Y035625
X064375Y035284
X066875Y035967
X051875Y045341
X059375Y044375
X061905Y045897
X064375Y044034
X063000Y040250
X066875Y044717
X053750Y041591
X051875Y030909
X060625Y030000
X051875Y039659
X060625Y038750
X059375Y041875
X057250Y037750
X048750Y047500
X057250Y029250
X057250Y020500
X055626Y039660
X066875Y041532
X053750Y045341
X066875Y032783
X053750Y036591
X055625Y030909
X057000Y022250
X066875Y024032
X057000Y013500
X064375Y014034
X066875Y014657
X063000Y023000
X063000Y031750
X056875Y011250
X049375Y008750
X066875Y005908
X061875Y003750
X088500Y032500
X088250Y031250
X053750Y019091
X082500Y021250
X053750Y027841
X081875Y026250
X060625Y006875
X085500Y022250
X083125Y026250
X079750Y030250
X075625Y043125
X076933Y020567
X086250Y024375
X064375Y017784
X096875Y032500
X096875Y027500
X081875Y028125
X093750Y033750
X066875Y017842
X091868Y014368
T02
X076815Y006875
X079355Y006875
X081895Y006875
X084435Y006875
T03
X095290Y026667G85X095290Y026672
X095290Y029207G85X095290Y029212
X095290Y031747G85X095290Y031752
X092750Y026667G85X092750Y026672
X092750Y029207G85X092750Y029212
X092750Y031747G85X092750Y031752
T04
X012625Y025000
X043625Y025000
X012625Y033750
X043625Y033750
X012625Y042500
X043625Y042500
X012625Y007500
X043625Y007500
X012625Y016250
X043625Y016250
X079380Y043467
X079370Y040927
X079380Y046007
T05
X003125Y033850
X003125Y031310
X003125Y028770
X003125Y026230
X003125Y023690
X003125Y021150
M30
