G04 Layer: TopPasteMaskLayer*
G04 EasyEDA v6.5.9, 2022-07-21 16:41:51*
G04 b4f09f4bc33d498599fb5b0af984a39b,0f63320d19d842adba92ba3d91eb0df2,10*
G04 Gerber Generator version 0.2*
G04 Scale: 100 percent, Rotated: No, Reflected: No *
G04 Dimensions in millimeters *
G04 leading zeros omitted , absolute positions ,4 integer and 5 decimal *
%FSLAX45Y45*%
%MOMM*%

%ADD10C,0.5880*%
%ADD11C,0.4500*%
%ADD12R,1.1000X2.8000*%
%ADD13R,1.0000X0.8000*%

%LPD*%
G36*
X9096908Y1469136D02*
G01*
X9006078Y1378254D01*
X9006078Y1364132D01*
X9032240Y1337970D01*
X9046413Y1337970D01*
X9067952Y1359509D01*
X9082074Y1359509D01*
X9109506Y1332128D01*
X9109506Y1317955D01*
X9087916Y1296416D01*
X9087916Y1282242D01*
X9114129Y1256080D01*
X9128252Y1256080D01*
X9219133Y1346962D01*
X9219133Y1361084D01*
X9111081Y1469136D01*
G37*
G36*
X8871712Y1243939D02*
G01*
X8780830Y1153058D01*
X8780830Y1138885D01*
X8888882Y1030884D01*
X8903055Y1030884D01*
X8993886Y1121714D01*
X8993886Y1135888D01*
X8967724Y1162050D01*
X8953550Y1162050D01*
X8932011Y1140510D01*
X8917889Y1140510D01*
X8890457Y1167892D01*
X8890457Y1182014D01*
X8912047Y1203604D01*
X8912047Y1217726D01*
X8885834Y1243939D01*
G37*
G36*
X9246717Y1618894D02*
G01*
X9155836Y1528064D01*
X9155836Y1513890D01*
X9263888Y1405839D01*
X9278061Y1405839D01*
X9368891Y1496720D01*
X9368891Y1510893D01*
X9342729Y1537055D01*
X9328556Y1537055D01*
X9307017Y1515465D01*
X9292894Y1515465D01*
X9265462Y1542897D01*
X9265462Y1557020D01*
X9287052Y1578610D01*
X9287052Y1592732D01*
X9260840Y1618894D01*
G37*
G36*
X9471914Y1844141D02*
G01*
X9381083Y1753260D01*
X9381083Y1739138D01*
X9407245Y1712925D01*
X9421368Y1712925D01*
X9442958Y1734515D01*
X9457080Y1734515D01*
X9484512Y1707083D01*
X9484512Y1692960D01*
X9462922Y1671421D01*
X9462922Y1657248D01*
X9489135Y1631086D01*
X9503257Y1631086D01*
X9594138Y1721916D01*
X9594138Y1736089D01*
X9486087Y1844141D01*
G37*
G36*
X6611112Y983487D02*
G01*
X6601104Y973480D01*
X6601104Y845007D01*
X6611112Y834999D01*
X6648094Y834999D01*
X6658102Y845007D01*
X6658102Y875487D01*
X6668109Y885494D01*
X6706870Y885494D01*
X6716877Y875487D01*
X6716877Y845007D01*
X6726885Y834999D01*
X6763867Y834999D01*
X6773875Y845007D01*
X6773875Y973480D01*
X6763867Y983487D01*
G37*
G36*
X6611112Y665022D02*
G01*
X6601104Y655015D01*
X6601104Y526491D01*
X6611112Y516483D01*
X6763867Y516483D01*
X6773875Y526491D01*
X6773875Y655015D01*
X6763867Y665022D01*
X6726885Y665022D01*
X6716877Y655015D01*
X6716877Y624484D01*
X6706870Y614527D01*
X6668109Y614527D01*
X6658102Y624484D01*
X6658102Y655015D01*
X6648094Y665022D01*
G37*
G36*
X6873494Y1857502D02*
G01*
X6868464Y1852523D01*
X6868464Y1737512D01*
X6873494Y1732483D01*
X6915505Y1732991D01*
X6915505Y1776984D01*
X6960463Y1776984D01*
X6960463Y1731975D01*
X7001509Y1732483D01*
X7006488Y1737512D01*
X7006488Y1852523D01*
X7001509Y1857502D01*
G37*
G36*
X6873494Y1642516D02*
G01*
X6868464Y1637487D01*
X6868464Y1522476D01*
X6873494Y1517497D01*
X7001509Y1517497D01*
X7006488Y1522476D01*
X7006488Y1637487D01*
X7001509Y1642516D01*
X6960463Y1642008D01*
X6960463Y1598015D01*
X6915505Y1598015D01*
X6915505Y1642516D01*
G37*
G36*
X6873494Y2795016D02*
G01*
X6868464Y2789986D01*
X6868464Y2674975D01*
X6873494Y2669997D01*
X6915505Y2670505D01*
X6915505Y2714498D01*
X6960463Y2714498D01*
X6960463Y2669489D01*
X7001509Y2669997D01*
X7006488Y2674975D01*
X7006488Y2789986D01*
X7001509Y2795016D01*
G37*
G36*
X6873494Y2579979D02*
G01*
X6868464Y2575001D01*
X6868464Y2459990D01*
X6873494Y2455011D01*
X7001509Y2455011D01*
X7006488Y2459990D01*
X7006488Y2575001D01*
X7001509Y2579979D01*
X6960463Y2579471D01*
X6960463Y2535478D01*
X6915505Y2535478D01*
X6915505Y2579979D01*
G37*
G36*
X6873494Y3669995D02*
G01*
X6868464Y3665016D01*
X6868464Y3550005D01*
X6873494Y3544976D01*
X6915505Y3545484D01*
X6915505Y3589477D01*
X6960463Y3589477D01*
X6960463Y3544468D01*
X7001509Y3544976D01*
X7006488Y3550005D01*
X7006488Y3665016D01*
X7001509Y3669995D01*
G37*
G36*
X6873494Y3455009D02*
G01*
X6868464Y3449980D01*
X6868464Y3334969D01*
X6873494Y3329990D01*
X7001509Y3329990D01*
X7006488Y3334969D01*
X7006488Y3449980D01*
X7001509Y3455009D01*
X6960463Y3454501D01*
X6960463Y3410508D01*
X6915505Y3410508D01*
X6915505Y3455009D01*
G37*
G36*
X6873494Y4544974D02*
G01*
X6868464Y4539996D01*
X6868464Y4424984D01*
X6873494Y4420006D01*
X6915505Y4420463D01*
X6915505Y4464507D01*
X6960463Y4464507D01*
X6960463Y4419498D01*
X7001509Y4420006D01*
X7006488Y4424984D01*
X7006488Y4539996D01*
X7001509Y4544974D01*
G37*
G36*
X6873494Y4329988D02*
G01*
X6868464Y4325010D01*
X6868464Y4209999D01*
X6873494Y4204970D01*
X7001509Y4204970D01*
X7006488Y4209999D01*
X7006488Y4325010D01*
X7001509Y4329988D01*
X6960463Y4329480D01*
X6960463Y4285488D01*
X6915505Y4285488D01*
X6915505Y4329988D01*
G37*
G36*
X6873494Y982522D02*
G01*
X6868464Y977493D01*
X6868464Y862482D01*
X6873494Y857503D01*
X6915505Y858012D01*
X6915505Y902004D01*
X6960463Y902004D01*
X6960463Y856996D01*
X7001509Y857503D01*
X7006488Y862482D01*
X7006488Y977493D01*
X7001509Y982522D01*
G37*
G36*
X6873494Y767486D02*
G01*
X6868464Y762508D01*
X6868464Y647496D01*
X6873494Y642518D01*
X7001509Y642518D01*
X7006488Y647496D01*
X7006488Y762508D01*
X7001509Y767486D01*
X6960463Y766978D01*
X6960463Y722985D01*
X6915505Y722985D01*
X6915505Y767486D01*
G37*
G36*
X7486091Y4705248D02*
G01*
X7476083Y4695240D01*
X7476083Y4566716D01*
X7486091Y4556709D01*
X7523124Y4556709D01*
X7533131Y4566716D01*
X7533131Y4597196D01*
X7543088Y4607204D01*
X7581849Y4607204D01*
X7591856Y4597196D01*
X7591856Y4566716D01*
X7601864Y4556709D01*
X7638897Y4556709D01*
X7648905Y4566716D01*
X7648905Y4695240D01*
X7638897Y4705248D01*
G37*
G36*
X7486091Y4386732D02*
G01*
X7476083Y4376724D01*
X7476083Y4248251D01*
X7486091Y4238244D01*
X7638897Y4238244D01*
X7648905Y4248251D01*
X7648905Y4376724D01*
X7638897Y4386732D01*
X7601864Y4386732D01*
X7591856Y4376724D01*
X7591856Y4346244D01*
X7581849Y4336237D01*
X7543088Y4336237D01*
X7533131Y4346244D01*
X7533131Y4376724D01*
X7523124Y4386732D01*
G37*
G36*
X8361070Y4074210D02*
G01*
X8351062Y4064254D01*
X8351062Y3935729D01*
X8361070Y3925722D01*
X8513876Y3925722D01*
X8523884Y3935729D01*
X8523884Y4064254D01*
X8513876Y4074210D01*
X8476843Y4074210D01*
X8466836Y4064254D01*
X8466836Y4033723D01*
X8456879Y4023715D01*
X8418118Y4023715D01*
X8408111Y4033723D01*
X8408111Y4064254D01*
X8398103Y4074210D01*
G37*
G36*
X8361070Y4392726D02*
G01*
X8351062Y4382719D01*
X8351062Y4254246D01*
X8361070Y4244238D01*
X8398103Y4244238D01*
X8408111Y4254246D01*
X8408111Y4284726D01*
X8418118Y4294733D01*
X8456879Y4294733D01*
X8466836Y4284726D01*
X8466836Y4254246D01*
X8476843Y4244238D01*
X8513876Y4244238D01*
X8523884Y4254246D01*
X8523884Y4382719D01*
X8513876Y4392726D01*
G37*
G36*
X6611112Y1858518D02*
G01*
X6601104Y1848510D01*
X6601104Y1719986D01*
X6611112Y1709978D01*
X6648094Y1709978D01*
X6658102Y1719986D01*
X6658102Y1750466D01*
X6668109Y1760474D01*
X6706870Y1760474D01*
X6716877Y1750466D01*
X6716877Y1719986D01*
X6726885Y1709978D01*
X6763867Y1709978D01*
X6773875Y1719986D01*
X6773875Y1848510D01*
X6763867Y1858518D01*
G37*
G36*
X6611112Y1540002D02*
G01*
X6601104Y1529994D01*
X6601104Y1401521D01*
X6611112Y1391513D01*
X6763867Y1391513D01*
X6773875Y1401521D01*
X6773875Y1529994D01*
X6763867Y1540002D01*
X6726885Y1540002D01*
X6716877Y1529994D01*
X6716877Y1499514D01*
X6706870Y1489506D01*
X6668109Y1489506D01*
X6658102Y1499514D01*
X6658102Y1529994D01*
X6648094Y1540002D01*
G37*
G36*
X6611112Y2795981D02*
G01*
X6601104Y2785973D01*
X6601104Y2657500D01*
X6611112Y2647492D01*
X6648094Y2647492D01*
X6658102Y2657500D01*
X6658102Y2687980D01*
X6668109Y2697988D01*
X6706870Y2697988D01*
X6716877Y2687980D01*
X6716877Y2657500D01*
X6726885Y2647492D01*
X6763867Y2647492D01*
X6773875Y2657500D01*
X6773875Y2785973D01*
X6763867Y2795981D01*
G37*
G36*
X6611112Y2477516D02*
G01*
X6601104Y2467508D01*
X6601104Y2338984D01*
X6611112Y2328976D01*
X6763867Y2328976D01*
X6773875Y2338984D01*
X6773875Y2467508D01*
X6763867Y2477516D01*
X6726885Y2477516D01*
X6716877Y2467508D01*
X6716877Y2437028D01*
X6706870Y2427020D01*
X6668109Y2427020D01*
X6658102Y2437028D01*
X6658102Y2467508D01*
X6648094Y2477516D01*
G37*
G36*
X6611112Y3671011D02*
G01*
X6601104Y3661003D01*
X6601104Y3532479D01*
X6611112Y3522472D01*
X6648094Y3522472D01*
X6658102Y3532479D01*
X6658102Y3563010D01*
X6668109Y3572967D01*
X6706870Y3572967D01*
X6716877Y3563010D01*
X6716877Y3532479D01*
X6726885Y3522472D01*
X6763867Y3522472D01*
X6773875Y3532479D01*
X6773875Y3661003D01*
X6763867Y3671011D01*
G37*
G36*
X6611112Y3352495D02*
G01*
X6601104Y3342487D01*
X6601104Y3214014D01*
X6611112Y3204006D01*
X6763867Y3204006D01*
X6773875Y3214014D01*
X6773875Y3342487D01*
X6763867Y3352495D01*
X6726885Y3352495D01*
X6716877Y3342487D01*
X6716877Y3312007D01*
X6706870Y3302000D01*
X6668109Y3302000D01*
X6658102Y3312007D01*
X6658102Y3342487D01*
X6648094Y3352495D01*
G37*
G36*
X6611112Y4545990D02*
G01*
X6601104Y4535982D01*
X6601104Y4407509D01*
X6611112Y4397502D01*
X6648094Y4397502D01*
X6658102Y4407509D01*
X6658102Y4437989D01*
X6668109Y4447997D01*
X6706870Y4447997D01*
X6716877Y4437989D01*
X6716877Y4407509D01*
X6726885Y4397502D01*
X6763867Y4397502D01*
X6773875Y4407509D01*
X6773875Y4535982D01*
X6763867Y4545990D01*
G37*
G36*
X6611112Y4227474D02*
G01*
X6601104Y4217466D01*
X6601104Y4088993D01*
X6611112Y4078986D01*
X6763867Y4078986D01*
X6773875Y4088993D01*
X6773875Y4217466D01*
X6763867Y4227474D01*
X6726885Y4227474D01*
X6716877Y4217466D01*
X6716877Y4186986D01*
X6706870Y4176979D01*
X6668109Y4176979D01*
X6658102Y4186986D01*
X6658102Y4217466D01*
X6648094Y4227474D01*
G37*
G36*
X7702042Y2138426D02*
G01*
X7672730Y2108403D01*
X7703820Y2077262D01*
X7672019Y2045462D01*
X7640167Y2077262D01*
X7611567Y2047900D01*
X7611567Y2040839D01*
X7692847Y1959508D01*
X7699959Y1959508D01*
X7790434Y2050034D01*
X7790434Y2057095D01*
X7709153Y2138426D01*
G37*
G36*
X7550048Y2290470D02*
G01*
X7459522Y2199944D01*
X7459522Y2192883D01*
X7540853Y2111552D01*
X7547914Y2111552D01*
X7576566Y2140915D01*
X7545425Y2172004D01*
X7577277Y2203856D01*
X7608722Y2172360D01*
X7638440Y2202078D01*
X7638440Y2209139D01*
X7557109Y2290470D01*
G37*
G36*
X4799990Y1381506D02*
G01*
X4795012Y1376476D01*
X4795469Y1334516D01*
X4839512Y1334516D01*
X4839512Y1289507D01*
X4794504Y1289507D01*
X4795012Y1248511D01*
X4799990Y1243482D01*
X4915001Y1243482D01*
X4919980Y1248511D01*
X4919980Y1376476D01*
X4915001Y1381506D01*
G37*
G36*
X4585004Y1381506D02*
G01*
X4579975Y1376476D01*
X4579975Y1248511D01*
X4585004Y1243482D01*
X4699965Y1243482D01*
X4704994Y1248511D01*
X4704486Y1289507D01*
X4660493Y1289507D01*
X4660493Y1334516D01*
X4704994Y1334516D01*
X4704994Y1376476D01*
X4699965Y1381506D01*
G37*
G36*
X5310987Y1607515D02*
G01*
X5306009Y1602486D01*
X5306009Y1487474D01*
X5310987Y1482496D01*
X5352999Y1483004D01*
X5352999Y1526997D01*
X5398008Y1526997D01*
X5398008Y1481988D01*
X5439003Y1482496D01*
X5443982Y1487474D01*
X5443982Y1602486D01*
X5439003Y1607515D01*
G37*
G36*
X5310987Y1392478D02*
G01*
X5306009Y1387500D01*
X5306009Y1272489D01*
X5310987Y1267510D01*
X5439003Y1267510D01*
X5443982Y1272489D01*
X5443982Y1387500D01*
X5439003Y1392478D01*
X5398008Y1391970D01*
X5398008Y1347978D01*
X5352999Y1347978D01*
X5352999Y1392478D01*
G37*
G36*
X5310987Y1982520D02*
G01*
X5306009Y1977491D01*
X5306009Y1862480D01*
X5310987Y1857502D01*
X5352999Y1858010D01*
X5352999Y1902002D01*
X5398008Y1902002D01*
X5398008Y1856993D01*
X5439003Y1857502D01*
X5443982Y1862480D01*
X5443982Y1977491D01*
X5439003Y1982520D01*
G37*
G36*
X5310987Y1767484D02*
G01*
X5306009Y1762506D01*
X5306009Y1647494D01*
X5310987Y1642516D01*
X5439003Y1642516D01*
X5443982Y1647494D01*
X5443982Y1762506D01*
X5439003Y1767484D01*
X5398008Y1766976D01*
X5398008Y1722983D01*
X5352999Y1722983D01*
X5352999Y1767484D01*
G37*
G36*
X5123484Y1607515D02*
G01*
X5118506Y1602486D01*
X5118506Y1487474D01*
X5123484Y1482496D01*
X5165496Y1483004D01*
X5165496Y1526997D01*
X5210505Y1526997D01*
X5210505Y1481988D01*
X5251500Y1482496D01*
X5256479Y1487474D01*
X5256479Y1602486D01*
X5251500Y1607515D01*
G37*
G36*
X5123484Y1392478D02*
G01*
X5118506Y1387500D01*
X5118506Y1272489D01*
X5123484Y1267510D01*
X5251500Y1267510D01*
X5256479Y1272489D01*
X5256479Y1387500D01*
X5251500Y1392478D01*
X5210505Y1391970D01*
X5210505Y1347978D01*
X5165496Y1347978D01*
X5165496Y1392478D01*
G37*
G36*
X6414516Y1455521D02*
G01*
X6373469Y1455013D01*
X6368491Y1449984D01*
X6368491Y1334973D01*
X6373469Y1329994D01*
X6501485Y1329994D01*
X6506514Y1334973D01*
X6506514Y1449984D01*
X6501485Y1455013D01*
X6459474Y1454505D01*
X6459474Y1410512D01*
X6414516Y1410512D01*
G37*
G36*
X6373469Y1669999D02*
G01*
X6368491Y1664970D01*
X6368491Y1550009D01*
X6373469Y1544980D01*
X6414516Y1545488D01*
X6414516Y1589481D01*
X6459474Y1589481D01*
X6459474Y1544980D01*
X6501485Y1544980D01*
X6506514Y1550009D01*
X6506514Y1664970D01*
X6501485Y1669999D01*
G37*
G36*
X5539486Y1392986D02*
G01*
X5498490Y1392478D01*
X5493512Y1387500D01*
X5493512Y1272489D01*
X5498490Y1267510D01*
X5626506Y1267510D01*
X5631484Y1272489D01*
X5631484Y1387500D01*
X5626506Y1392478D01*
X5584494Y1392021D01*
X5584494Y1347978D01*
X5539486Y1347978D01*
G37*
G36*
X5498490Y1607515D02*
G01*
X5493512Y1602486D01*
X5493512Y1487474D01*
X5498490Y1482496D01*
X5539486Y1483004D01*
X5539486Y1526997D01*
X5584494Y1526997D01*
X5584494Y1482496D01*
X5626506Y1482496D01*
X5631484Y1487474D01*
X5631484Y1602486D01*
X5626506Y1607515D01*
G37*
G36*
X5539486Y1767992D02*
G01*
X5498490Y1767484D01*
X5493512Y1762506D01*
X5493512Y1647494D01*
X5498490Y1642516D01*
X5626506Y1642516D01*
X5631484Y1647494D01*
X5631484Y1762506D01*
X5626506Y1767484D01*
X5584494Y1766976D01*
X5584494Y1722983D01*
X5539486Y1722983D01*
G37*
G36*
X5498490Y1982470D02*
G01*
X5493512Y1977491D01*
X5493512Y1862480D01*
X5498490Y1857502D01*
X5539486Y1858010D01*
X5539486Y1902002D01*
X5584494Y1902002D01*
X5584494Y1857502D01*
X5626506Y1857502D01*
X5631484Y1862480D01*
X5631484Y1977491D01*
X5626506Y1982470D01*
G37*
G36*
X5164480Y1767992D02*
G01*
X5123484Y1767484D01*
X5118506Y1762506D01*
X5118506Y1647494D01*
X5123484Y1642516D01*
X5251500Y1642516D01*
X5256479Y1647494D01*
X5256479Y1762506D01*
X5251500Y1767484D01*
X5209489Y1766976D01*
X5209489Y1722983D01*
X5164480Y1722983D01*
G37*
G36*
X5123484Y1982470D02*
G01*
X5118506Y1977491D01*
X5118506Y1862480D01*
X5123484Y1857502D01*
X5164480Y1858010D01*
X5164480Y1902002D01*
X5209489Y1902002D01*
X5209489Y1857502D01*
X5251500Y1857502D01*
X5256479Y1862480D01*
X5256479Y1977491D01*
X5251500Y1982470D01*
G37*
G36*
X6373469Y2045004D02*
G01*
X6368491Y2039975D01*
X6368491Y1925015D01*
X6373469Y1919986D01*
X6415481Y1920493D01*
X6415481Y1964486D01*
X6460490Y1964486D01*
X6460490Y1919478D01*
X6501485Y1919986D01*
X6506464Y1925015D01*
X6506464Y2039975D01*
X6501485Y2045004D01*
G37*
G36*
X6373469Y1830019D02*
G01*
X6368491Y1824989D01*
X6368491Y1709978D01*
X6373469Y1705000D01*
X6501485Y1705000D01*
X6506464Y1709978D01*
X6506464Y1824989D01*
X6501485Y1830019D01*
X6460490Y1829511D01*
X6460490Y1785518D01*
X6415481Y1785518D01*
X6415481Y1830019D01*
G37*
G36*
X6373469Y2919984D02*
G01*
X6368491Y2915005D01*
X6368491Y2799994D01*
X6373469Y2795016D01*
X6415481Y2795473D01*
X6415481Y2839516D01*
X6460490Y2839516D01*
X6460490Y2794508D01*
X6501485Y2795016D01*
X6506464Y2799994D01*
X6506464Y2915005D01*
X6501485Y2919984D01*
G37*
G36*
X6373469Y2704998D02*
G01*
X6368491Y2699969D01*
X6368491Y2585008D01*
X6373469Y2579979D01*
X6501485Y2579979D01*
X6506464Y2585008D01*
X6506464Y2699969D01*
X6501485Y2704998D01*
X6460490Y2704490D01*
X6460490Y2660497D01*
X6415481Y2660497D01*
X6415481Y2704998D01*
G37*
G36*
X5164480Y2642971D02*
G01*
X5123484Y2642514D01*
X5118506Y2637485D01*
X5118506Y2522474D01*
X5123484Y2517495D01*
X5251500Y2517495D01*
X5256479Y2522474D01*
X5256479Y2637485D01*
X5251500Y2642514D01*
X5209489Y2642006D01*
X5209489Y2598013D01*
X5164480Y2598013D01*
G37*
G36*
X5123484Y2857500D02*
G01*
X5118506Y2852470D01*
X5118506Y2737510D01*
X5123484Y2732481D01*
X5164480Y2732989D01*
X5164480Y2776982D01*
X5209489Y2776982D01*
X5209489Y2732481D01*
X5251500Y2732481D01*
X5256479Y2737510D01*
X5256479Y2852470D01*
X5251500Y2857500D01*
G37*
G36*
X5539486Y2642971D02*
G01*
X5498490Y2642514D01*
X5493512Y2637485D01*
X5493512Y2522474D01*
X5498490Y2517495D01*
X5626506Y2517495D01*
X5631484Y2522474D01*
X5631484Y2637485D01*
X5626506Y2642514D01*
X5584494Y2642006D01*
X5584494Y2598013D01*
X5539486Y2598013D01*
G37*
G36*
X5498490Y2857500D02*
G01*
X5493512Y2852470D01*
X5493512Y2737510D01*
X5498490Y2732481D01*
X5539486Y2732989D01*
X5539486Y2776982D01*
X5584494Y2776982D01*
X5584494Y2732481D01*
X5626506Y2732481D01*
X5631484Y2737510D01*
X5631484Y2852470D01*
X5626506Y2857500D01*
G37*
G36*
X5539486Y2268016D02*
G01*
X5498490Y2267508D01*
X5493512Y2262479D01*
X5493512Y2147519D01*
X5498490Y2142490D01*
X5626506Y2142490D01*
X5631484Y2147519D01*
X5631484Y2262479D01*
X5626506Y2267508D01*
X5584494Y2267000D01*
X5584494Y2223008D01*
X5539486Y2223008D01*
G37*
G36*
X5498490Y2482494D02*
G01*
X5493512Y2477516D01*
X5493512Y2362504D01*
X5498490Y2357475D01*
X5539486Y2357983D01*
X5539486Y2401976D01*
X5584494Y2401976D01*
X5584494Y2357475D01*
X5626506Y2357475D01*
X5631484Y2362504D01*
X5631484Y2477516D01*
X5626506Y2482494D01*
G37*
G36*
X6414516Y2330500D02*
G01*
X6373469Y2329992D01*
X6368491Y2325014D01*
X6368491Y2210003D01*
X6373469Y2204974D01*
X6501485Y2204974D01*
X6506514Y2210003D01*
X6506514Y2325014D01*
X6501485Y2329992D01*
X6459474Y2329484D01*
X6459474Y2285492D01*
X6414516Y2285492D01*
G37*
G36*
X6373469Y2544978D02*
G01*
X6368491Y2540000D01*
X6368491Y2424988D01*
X6373469Y2420010D01*
X6414516Y2420518D01*
X6414516Y2464511D01*
X6459474Y2464511D01*
X6459474Y2420010D01*
X6501485Y2420010D01*
X6506514Y2424988D01*
X6506514Y2540000D01*
X6501485Y2544978D01*
G37*
G36*
X5123484Y2482494D02*
G01*
X5118506Y2477516D01*
X5118506Y2362504D01*
X5123484Y2357475D01*
X5165496Y2357983D01*
X5165496Y2401976D01*
X5210505Y2401976D01*
X5210505Y2357018D01*
X5251500Y2357475D01*
X5256479Y2362504D01*
X5256479Y2477516D01*
X5251500Y2482494D01*
G37*
G36*
X5123484Y2267508D02*
G01*
X5118506Y2262479D01*
X5118506Y2147519D01*
X5123484Y2142490D01*
X5251500Y2142490D01*
X5256479Y2147519D01*
X5256479Y2262479D01*
X5251500Y2267508D01*
X5210505Y2267000D01*
X5210505Y2223008D01*
X5165496Y2223008D01*
X5165496Y2267508D01*
G37*
G36*
X5310987Y2857500D02*
G01*
X5306009Y2852470D01*
X5306009Y2737510D01*
X5310987Y2732481D01*
X5352999Y2732989D01*
X5352999Y2776982D01*
X5398008Y2776982D01*
X5398008Y2731973D01*
X5439003Y2732481D01*
X5443982Y2737510D01*
X5443982Y2852470D01*
X5439003Y2857500D01*
G37*
G36*
X5310987Y2642514D02*
G01*
X5306009Y2637485D01*
X5306009Y2522474D01*
X5310987Y2517495D01*
X5439003Y2517495D01*
X5443982Y2522474D01*
X5443982Y2637485D01*
X5439003Y2642514D01*
X5398008Y2642006D01*
X5398008Y2598013D01*
X5352999Y2598013D01*
X5352999Y2642514D01*
G37*
G36*
X5310987Y2482494D02*
G01*
X5306009Y2477516D01*
X5306009Y2362504D01*
X5310987Y2357475D01*
X5352999Y2357983D01*
X5352999Y2401976D01*
X5398008Y2401976D01*
X5398008Y2357018D01*
X5439003Y2357475D01*
X5443982Y2362504D01*
X5443982Y2477516D01*
X5439003Y2482494D01*
G37*
G36*
X5310987Y2267508D02*
G01*
X5306009Y2262479D01*
X5306009Y2147519D01*
X5310987Y2142490D01*
X5439003Y2142490D01*
X5443982Y2147519D01*
X5443982Y2262479D01*
X5439003Y2267508D01*
X5398008Y2267000D01*
X5398008Y2223008D01*
X5352999Y2223008D01*
X5352999Y2267508D01*
G37*
G36*
X4799990Y2256485D02*
G01*
X4795012Y2251506D01*
X4795469Y2209495D01*
X4839512Y2209495D01*
X4839512Y2164486D01*
X4794504Y2164486D01*
X4795012Y2123490D01*
X4799990Y2118512D01*
X4915001Y2118512D01*
X4919980Y2123490D01*
X4919980Y2251506D01*
X4915001Y2256485D01*
G37*
G36*
X4585004Y2256485D02*
G01*
X4579975Y2251506D01*
X4579975Y2123490D01*
X4585004Y2118512D01*
X4699965Y2118512D01*
X4704994Y2123490D01*
X4704486Y2164486D01*
X4660493Y2164486D01*
X4660493Y2209495D01*
X4704994Y2209495D01*
X4704994Y2251506D01*
X4699965Y2256485D01*
G37*
G36*
X6373469Y3795014D02*
G01*
X6368491Y3789984D01*
X6368491Y3674973D01*
X6373469Y3669995D01*
X6415481Y3670503D01*
X6415481Y3714496D01*
X6460490Y3714496D01*
X6460490Y3669487D01*
X6501485Y3669995D01*
X6506464Y3674973D01*
X6506464Y3789984D01*
X6501485Y3795014D01*
G37*
G36*
X6373469Y3579977D02*
G01*
X6368491Y3574999D01*
X6368491Y3459987D01*
X6373469Y3455009D01*
X6501485Y3455009D01*
X6506464Y3459987D01*
X6506464Y3574999D01*
X6501485Y3579977D01*
X6460490Y3579469D01*
X6460490Y3535476D01*
X6415481Y3535476D01*
X6415481Y3579977D01*
G37*
G36*
X5164480Y3518001D02*
G01*
X5123484Y3517493D01*
X5118506Y3512515D01*
X5118506Y3397504D01*
X5123484Y3392474D01*
X5251500Y3392474D01*
X5256479Y3397504D01*
X5256479Y3512515D01*
X5251500Y3517493D01*
X5209489Y3516985D01*
X5209489Y3472992D01*
X5164480Y3472992D01*
G37*
G36*
X5123484Y3732479D02*
G01*
X5118506Y3727500D01*
X5118506Y3612489D01*
X5123484Y3607511D01*
X5164480Y3608019D01*
X5164480Y3652012D01*
X5209489Y3652012D01*
X5209489Y3607511D01*
X5251500Y3607511D01*
X5256479Y3612489D01*
X5256479Y3727500D01*
X5251500Y3732479D01*
G37*
G36*
X5539486Y3518001D02*
G01*
X5498490Y3517493D01*
X5493512Y3512515D01*
X5493512Y3397504D01*
X5498490Y3392474D01*
X5626506Y3392474D01*
X5631484Y3397504D01*
X5631484Y3512515D01*
X5626506Y3517493D01*
X5584494Y3516985D01*
X5584494Y3472992D01*
X5539486Y3472992D01*
G37*
G36*
X5498490Y3732479D02*
G01*
X5493512Y3727500D01*
X5493512Y3612489D01*
X5498490Y3607511D01*
X5539486Y3608019D01*
X5539486Y3652012D01*
X5584494Y3652012D01*
X5584494Y3607511D01*
X5626506Y3607511D01*
X5631484Y3612489D01*
X5631484Y3727500D01*
X5626506Y3732479D01*
G37*
G36*
X5539486Y3142996D02*
G01*
X5498490Y3142488D01*
X5493512Y3137509D01*
X5493512Y3022498D01*
X5498490Y3017469D01*
X5626506Y3017469D01*
X5631484Y3022498D01*
X5631484Y3137509D01*
X5626506Y3142488D01*
X5584494Y3141980D01*
X5584494Y3097987D01*
X5539486Y3097987D01*
G37*
G36*
X5498490Y3357473D02*
G01*
X5493512Y3352495D01*
X5493512Y3237484D01*
X5498490Y3232505D01*
X5539486Y3233013D01*
X5539486Y3277006D01*
X5584494Y3277006D01*
X5584494Y3232505D01*
X5626506Y3232505D01*
X5631484Y3237484D01*
X5631484Y3352495D01*
X5626506Y3357473D01*
G37*
G36*
X6414516Y3205480D02*
G01*
X6373469Y3204972D01*
X6368491Y3199993D01*
X6368491Y3084982D01*
X6373469Y3080004D01*
X6501485Y3080004D01*
X6506514Y3084982D01*
X6506514Y3199993D01*
X6501485Y3204972D01*
X6459474Y3204514D01*
X6459474Y3160471D01*
X6414516Y3160471D01*
G37*
G36*
X6373469Y3420008D02*
G01*
X6368491Y3414979D01*
X6368491Y3299968D01*
X6373469Y3294989D01*
X6414516Y3295497D01*
X6414516Y3339490D01*
X6459474Y3339490D01*
X6459474Y3294989D01*
X6501485Y3294989D01*
X6506514Y3299968D01*
X6506514Y3414979D01*
X6501485Y3420008D01*
G37*
G36*
X5123484Y3357473D02*
G01*
X5118506Y3352495D01*
X5118506Y3237484D01*
X5123484Y3232505D01*
X5165496Y3233013D01*
X5165496Y3277006D01*
X5210505Y3277006D01*
X5210505Y3231997D01*
X5251500Y3232505D01*
X5256479Y3237484D01*
X5256479Y3352495D01*
X5251500Y3357473D01*
G37*
G36*
X5123484Y3142488D02*
G01*
X5118506Y3137509D01*
X5118506Y3022498D01*
X5123484Y3017469D01*
X5251500Y3017469D01*
X5256479Y3022498D01*
X5256479Y3137509D01*
X5251500Y3142488D01*
X5210505Y3141980D01*
X5210505Y3097987D01*
X5165496Y3097987D01*
X5165496Y3142488D01*
G37*
G36*
X5310987Y3732479D02*
G01*
X5306009Y3727500D01*
X5306009Y3612489D01*
X5310987Y3607511D01*
X5352999Y3607968D01*
X5352999Y3652012D01*
X5398008Y3652012D01*
X5398008Y3607003D01*
X5439003Y3607511D01*
X5443982Y3612489D01*
X5443982Y3727500D01*
X5439003Y3732479D01*
G37*
G36*
X5310987Y3517493D02*
G01*
X5306009Y3512515D01*
X5306009Y3397504D01*
X5310987Y3392474D01*
X5439003Y3392474D01*
X5443982Y3397504D01*
X5443982Y3512515D01*
X5439003Y3517493D01*
X5398008Y3516985D01*
X5398008Y3472992D01*
X5352999Y3472992D01*
X5352999Y3517493D01*
G37*
G36*
X5310987Y3357473D02*
G01*
X5306009Y3352495D01*
X5306009Y3237484D01*
X5310987Y3232505D01*
X5352999Y3233013D01*
X5352999Y3277006D01*
X5398008Y3277006D01*
X5398008Y3231997D01*
X5439003Y3232505D01*
X5443982Y3237484D01*
X5443982Y3352495D01*
X5439003Y3357473D01*
G37*
G36*
X5310987Y3142488D02*
G01*
X5306009Y3137509D01*
X5306009Y3022498D01*
X5310987Y3017469D01*
X5439003Y3017469D01*
X5443982Y3022498D01*
X5443982Y3137509D01*
X5439003Y3142488D01*
X5398008Y3141980D01*
X5398008Y3097987D01*
X5352999Y3097987D01*
X5352999Y3142488D01*
G37*
G36*
X4799990Y3131515D02*
G01*
X4795012Y3126486D01*
X4795469Y3084474D01*
X4839512Y3084474D01*
X4839512Y3039516D01*
X4794504Y3039516D01*
X4795012Y2998470D01*
X4799990Y2993491D01*
X4915001Y2993491D01*
X4919980Y2998470D01*
X4919980Y3126486D01*
X4915001Y3131515D01*
G37*
G36*
X4585004Y3131515D02*
G01*
X4579975Y3126486D01*
X4579975Y2998470D01*
X4585004Y2993491D01*
X4699965Y2993491D01*
X4704994Y2998470D01*
X4704486Y3039516D01*
X4660493Y3039516D01*
X4660493Y3084474D01*
X4704994Y3084474D01*
X4704994Y3126486D01*
X4699965Y3131515D01*
G37*
G36*
X6373469Y4669993D02*
G01*
X6368491Y4665014D01*
X6368491Y4550003D01*
X6373469Y4544974D01*
X6415481Y4545482D01*
X6415481Y4589475D01*
X6460490Y4589475D01*
X6460490Y4544466D01*
X6501485Y4544974D01*
X6506464Y4550003D01*
X6506464Y4665014D01*
X6501485Y4669993D01*
G37*
G36*
X6373469Y4455007D02*
G01*
X6368491Y4449978D01*
X6368491Y4334967D01*
X6373469Y4329988D01*
X6501485Y4329988D01*
X6506464Y4334967D01*
X6506464Y4449978D01*
X6501485Y4455007D01*
X6460490Y4454499D01*
X6460490Y4410506D01*
X6415481Y4410506D01*
X6415481Y4455007D01*
G37*
G36*
X5164480Y4392980D02*
G01*
X5123484Y4392472D01*
X5118506Y4387494D01*
X5118506Y4272483D01*
X5123484Y4267504D01*
X5251500Y4267504D01*
X5256479Y4272483D01*
X5256479Y4387494D01*
X5251500Y4392472D01*
X5209489Y4392015D01*
X5209489Y4347972D01*
X5164480Y4347972D01*
G37*
G36*
X5123484Y4607509D02*
G01*
X5118506Y4602480D01*
X5118506Y4487468D01*
X5123484Y4482490D01*
X5164480Y4482998D01*
X5164480Y4526991D01*
X5209489Y4526991D01*
X5209489Y4482490D01*
X5251500Y4482490D01*
X5256479Y4487468D01*
X5256479Y4602480D01*
X5251500Y4607509D01*
G37*
G36*
X5539486Y4392980D02*
G01*
X5498490Y4392472D01*
X5493512Y4387494D01*
X5493512Y4272483D01*
X5498490Y4267504D01*
X5626506Y4267504D01*
X5631484Y4272483D01*
X5631484Y4387494D01*
X5626506Y4392472D01*
X5584494Y4392015D01*
X5584494Y4347972D01*
X5539486Y4347972D01*
G37*
G36*
X5498490Y4607509D02*
G01*
X5493512Y4602480D01*
X5493512Y4487468D01*
X5498490Y4482490D01*
X5539486Y4482998D01*
X5539486Y4526991D01*
X5584494Y4526991D01*
X5584494Y4482490D01*
X5626506Y4482490D01*
X5631484Y4487468D01*
X5631484Y4602480D01*
X5626506Y4607509D01*
G37*
G36*
X5539486Y4017975D02*
G01*
X5498490Y4017467D01*
X5493512Y4012488D01*
X5493512Y3897477D01*
X5498490Y3892499D01*
X5626506Y3892499D01*
X5631484Y3897477D01*
X5631484Y4012488D01*
X5626506Y4017467D01*
X5584494Y4017010D01*
X5584494Y3972966D01*
X5539486Y3972966D01*
G37*
G36*
X5498490Y4232503D02*
G01*
X5493512Y4227474D01*
X5493512Y4112514D01*
X5498490Y4107484D01*
X5539486Y4107992D01*
X5539486Y4151985D01*
X5584494Y4151985D01*
X5584494Y4107484D01*
X5626506Y4107484D01*
X5631484Y4112514D01*
X5631484Y4227474D01*
X5626506Y4232503D01*
G37*
G36*
X6414516Y4080510D02*
G01*
X6373469Y4080001D01*
X6368491Y4074972D01*
X6368491Y3960012D01*
X6373469Y3954983D01*
X6501485Y3954983D01*
X6506514Y3960012D01*
X6506514Y4074972D01*
X6501485Y4080001D01*
X6459474Y4079494D01*
X6459474Y4035501D01*
X6414516Y4035501D01*
G37*
G36*
X6373469Y4294987D02*
G01*
X6368491Y4290009D01*
X6368491Y4174998D01*
X6373469Y4169968D01*
X6414516Y4170476D01*
X6414516Y4214469D01*
X6459474Y4214469D01*
X6459474Y4169968D01*
X6501485Y4169968D01*
X6506514Y4174998D01*
X6506514Y4290009D01*
X6501485Y4294987D01*
G37*
G36*
X5123484Y4232503D02*
G01*
X5118506Y4227474D01*
X5118506Y4112514D01*
X5123484Y4107484D01*
X5165496Y4107992D01*
X5165496Y4151985D01*
X5210505Y4151985D01*
X5210505Y4106976D01*
X5251500Y4107484D01*
X5256479Y4112514D01*
X5256479Y4227474D01*
X5251500Y4232503D01*
G37*
G36*
X5123484Y4017467D02*
G01*
X5118506Y4012488D01*
X5118506Y3897477D01*
X5123484Y3892499D01*
X5251500Y3892499D01*
X5256479Y3897477D01*
X5256479Y4012488D01*
X5251500Y4017467D01*
X5210505Y4017010D01*
X5210505Y3972966D01*
X5165496Y3972966D01*
X5165496Y4017467D01*
G37*
G36*
X5310987Y4607509D02*
G01*
X5306009Y4602480D01*
X5306009Y4487468D01*
X5310987Y4482490D01*
X5352999Y4482998D01*
X5352999Y4526991D01*
X5398008Y4526991D01*
X5398008Y4481982D01*
X5439003Y4482490D01*
X5443982Y4487468D01*
X5443982Y4602480D01*
X5439003Y4607509D01*
G37*
G36*
X5310987Y4392472D02*
G01*
X5306009Y4387494D01*
X5306009Y4272483D01*
X5310987Y4267504D01*
X5439003Y4267504D01*
X5443982Y4272483D01*
X5443982Y4387494D01*
X5439003Y4392472D01*
X5398008Y4392015D01*
X5398008Y4347972D01*
X5352999Y4347972D01*
X5352999Y4392472D01*
G37*
G36*
X5310987Y4232503D02*
G01*
X5306009Y4227474D01*
X5306009Y4112514D01*
X5310987Y4107484D01*
X5352999Y4107992D01*
X5352999Y4151985D01*
X5398008Y4151985D01*
X5398008Y4106976D01*
X5439003Y4107484D01*
X5443982Y4112514D01*
X5443982Y4227474D01*
X5439003Y4232503D01*
G37*
G36*
X5310987Y4017467D02*
G01*
X5306009Y4012488D01*
X5306009Y3897477D01*
X5310987Y3892499D01*
X5439003Y3892499D01*
X5443982Y3897477D01*
X5443982Y4012488D01*
X5439003Y4017467D01*
X5398008Y4017010D01*
X5398008Y3972966D01*
X5352999Y3972966D01*
X5352999Y4017467D01*
G37*
G36*
X4799990Y4006494D02*
G01*
X4795012Y4001515D01*
X4795469Y3959504D01*
X4839512Y3959504D01*
X4839512Y3914495D01*
X4794504Y3914495D01*
X4795012Y3873500D01*
X4799990Y3868470D01*
X4915001Y3868470D01*
X4919980Y3873500D01*
X4919980Y4001515D01*
X4915001Y4006494D01*
G37*
G36*
X4585004Y4006494D02*
G01*
X4579975Y4001515D01*
X4579975Y3873500D01*
X4585004Y3868470D01*
X4699965Y3868470D01*
X4704994Y3873500D01*
X4704486Y3914495D01*
X4660493Y3914495D01*
X4660493Y3959504D01*
X4704994Y3959504D01*
X4704994Y4001515D01*
X4699965Y4006494D01*
G37*
G36*
X4799990Y506476D02*
G01*
X4795012Y501497D01*
X4795469Y459485D01*
X4839512Y459485D01*
X4839512Y414528D01*
X4794504Y414528D01*
X4795012Y373481D01*
X4799990Y368503D01*
X4915001Y368503D01*
X4919980Y373481D01*
X4919980Y501497D01*
X4915001Y506476D01*
G37*
G36*
X4585004Y506476D02*
G01*
X4579975Y501497D01*
X4579975Y373481D01*
X4585004Y368503D01*
X4699965Y368503D01*
X4704994Y373481D01*
X4704486Y414528D01*
X4660493Y414528D01*
X4660493Y459485D01*
X4704994Y459485D01*
X4704994Y501497D01*
X4699965Y506476D01*
G37*
D10*
X5809488Y608103D02*
G01*
X5809488Y462404D01*
X5936488Y608103D02*
G01*
X5936488Y462404D01*
X6063488Y608103D02*
G01*
X6063488Y462404D01*
X6190488Y608103D02*
G01*
X6190488Y462404D01*
X5809488Y1162585D02*
G01*
X5809488Y1016886D01*
X5936488Y1162585D02*
G01*
X5936488Y1016886D01*
X6063488Y1162585D02*
G01*
X6063488Y1016886D01*
X6190488Y1162585D02*
G01*
X6190488Y1016886D01*
D11*
X8033250Y2324752D02*
G01*
X8118101Y2409604D01*
X7976659Y2381318D02*
G01*
X8061510Y2466169D01*
X7920093Y2437909D02*
G01*
X8004944Y2522761D01*
X7863527Y2494475D02*
G01*
X7948378Y2579326D01*
X7806961Y2551041D02*
G01*
X7891813Y2635892D01*
X7750395Y2607607D02*
G01*
X7835247Y2692458D01*
X7693830Y2664172D02*
G01*
X7778681Y2749024D01*
X7637238Y2720738D02*
G01*
X7722090Y2805590D01*
X7638153Y3028348D02*
G01*
X7723004Y2943496D01*
X7694719Y3084913D02*
G01*
X7779570Y3000062D01*
X7751284Y3141505D02*
G01*
X7836136Y3056653D01*
X7807850Y3198045D02*
G01*
X7892702Y3113194D01*
X7864441Y3254636D02*
G01*
X7949293Y3169785D01*
X7920982Y3311177D02*
G01*
X8005833Y3226325D01*
X7977573Y3367768D02*
G01*
X8062424Y3282916D01*
X8034139Y3424334D02*
G01*
X8118990Y3339482D01*
X8256897Y3340397D02*
G01*
X8341748Y3425248D01*
X8313463Y3283805D02*
G01*
X8398314Y3368657D01*
X8370028Y3227240D02*
G01*
X8454880Y3312091D01*
X8426594Y3170674D02*
G01*
X8511446Y3255525D01*
X8483160Y3114108D02*
G01*
X8568011Y3198959D01*
X8539726Y3057542D02*
G01*
X8624577Y3142394D01*
X8596292Y3000976D02*
G01*
X8681143Y3085828D01*
X8652883Y2944385D02*
G01*
X8737734Y3029237D01*
X8651968Y2806504D02*
G01*
X8736820Y2721653D01*
X8595403Y2749913D02*
G01*
X8680254Y2665061D01*
X8538837Y2693347D02*
G01*
X8623688Y2608496D01*
X8482271Y2636781D02*
G01*
X8567122Y2551930D01*
X8425705Y2580215D02*
G01*
X8510557Y2495364D01*
X8369139Y2523650D02*
G01*
X8453991Y2438798D01*
X8312574Y2467084D02*
G01*
X8397425Y2382232D01*
X8255982Y2410493D02*
G01*
X8340834Y2325641D01*
D10*
X5809488Y1483108D02*
G01*
X5809488Y1337409D01*
X5936488Y1483108D02*
G01*
X5936488Y1337409D01*
X6063488Y1483108D02*
G01*
X6063488Y1337409D01*
X6190488Y1483108D02*
G01*
X6190488Y1337409D01*
X5809488Y2037590D02*
G01*
X5809488Y1891891D01*
X5936488Y2037590D02*
G01*
X5936488Y1891891D01*
X6063488Y2037590D02*
G01*
X6063488Y1891891D01*
X6190488Y2037590D02*
G01*
X6190488Y1891891D01*
X5809488Y2358113D02*
G01*
X5809488Y2212413D01*
X5936488Y2358113D02*
G01*
X5936488Y2212413D01*
X6063488Y2358113D02*
G01*
X6063488Y2212413D01*
X6190488Y2358113D02*
G01*
X6190488Y2212413D01*
X5809488Y2912595D02*
G01*
X5809488Y2766895D01*
X5936488Y2912595D02*
G01*
X5936488Y2766895D01*
X6063488Y2912595D02*
G01*
X6063488Y2766895D01*
X6190488Y2912595D02*
G01*
X6190488Y2766895D01*
X5809488Y3233092D02*
G01*
X5809488Y3087392D01*
X5936488Y3233092D02*
G01*
X5936488Y3087392D01*
X6063488Y3233092D02*
G01*
X6063488Y3087392D01*
X6190488Y3233092D02*
G01*
X6190488Y3087392D01*
X5809488Y3787574D02*
G01*
X5809488Y3641874D01*
X5936488Y3787574D02*
G01*
X5936488Y3641874D01*
X6063488Y3787574D02*
G01*
X6063488Y3641874D01*
X6190488Y3787574D02*
G01*
X6190488Y3641874D01*
X5809488Y4108096D02*
G01*
X5809488Y3962397D01*
X5936488Y4108096D02*
G01*
X5936488Y3962397D01*
X6063488Y4108096D02*
G01*
X6063488Y3962397D01*
X6190488Y4108096D02*
G01*
X6190488Y3962397D01*
X5809488Y4662578D02*
G01*
X5809488Y4516879D01*
X5936488Y4662578D02*
G01*
X5936488Y4516879D01*
X6063488Y4662578D02*
G01*
X6063488Y4516879D01*
X6190488Y4662578D02*
G01*
X6190488Y4516879D01*
G36*
X8956507Y1923445D02*
G01*
X9345416Y2312355D01*
X9437339Y2220429D01*
X9048429Y1831520D01*
G37*
G36*
X8312622Y1279560D02*
G01*
X8701531Y1668470D01*
X8793457Y1576547D01*
X8404547Y1187637D01*
G37*
D12*
G01*
X8937472Y3977487D03*
G01*
X8937472Y4397502D03*
D13*
G01*
X4802504Y1719986D03*
G01*
X4572482Y1624990D03*
G01*
X4802479Y1529994D03*
G01*
X4802504Y2594990D03*
G01*
X4572482Y2499995D03*
G01*
X4802479Y2404998D03*
G01*
X4802504Y3469995D03*
G01*
X4572482Y3374999D03*
G01*
X4802479Y3280003D03*
G01*
X4802504Y4345000D03*
G01*
X4572482Y4250004D03*
G01*
X4802479Y4154982D03*
G01*
X4802504Y845007D03*
G01*
X4572482Y750011D03*
G01*
X4802479Y654989D03*
M02*
