G04 Layer: TopSilkscreenLayer*
G04 EasyEDA v6.5.9, 2022-07-21 16:41:51*
G04 b4f09f4bc33d498599fb5b0af984a39b,0f63320d19d842adba92ba3d91eb0df2,10*
G04 Gerber Generator version 0.2*
G04 Scale: 100 percent, Rotated: No, Reflected: No *
G04 Dimensions in millimeters *
G04 leading zeros omitted , absolute positions ,4 integer and 5 decimal *
%FSLAX45Y45*%
%MOMM*%

%ADD10C,0.2032*%
%ADD11C,0.1524*%
%ADD12C,0.2030*%
%ADD13C,0.2540*%
%ADD14C,0.1270*%
%ADD15C,0.3000*%
%ADD16C,0.4000*%
%ADD17C,0.0112*%

%LPD*%
D10*
X661035Y1937496D02*
G01*
X804290Y1937496D01*
X661035Y2033000D02*
G01*
X804290Y2033000D01*
X729361Y1937496D02*
G01*
X729361Y2033000D01*
X708787Y2159746D02*
G01*
X804290Y2159746D01*
X729361Y2159746D02*
G01*
X715645Y2146030D01*
X708787Y2132568D01*
X708787Y2111994D01*
X715645Y2098278D01*
X729361Y2084816D01*
X749680Y2077958D01*
X763396Y2077958D01*
X783970Y2084816D01*
X797432Y2098278D01*
X804290Y2111994D01*
X804290Y2132568D01*
X797432Y2146030D01*
X783970Y2159746D01*
X708787Y2204704D02*
G01*
X804290Y2204704D01*
X749680Y2204704D02*
G01*
X729361Y2211562D01*
X715645Y2225278D01*
X708787Y2238740D01*
X708787Y2259314D01*
X708787Y2304272D02*
G01*
X804290Y2304272D01*
X749680Y2304272D02*
G01*
X729361Y2311130D01*
X715645Y2324846D01*
X708787Y2338308D01*
X708787Y2358882D01*
X661035Y2403840D02*
G01*
X667893Y2410698D01*
X661035Y2417556D01*
X654430Y2410698D01*
X661035Y2403840D01*
X708787Y2410698D02*
G01*
X804290Y2410698D01*
X729361Y2537444D02*
G01*
X715645Y2530586D01*
X708787Y2510266D01*
X708787Y2489692D01*
X715645Y2469372D01*
X729361Y2462514D01*
X743077Y2469372D01*
X749680Y2482834D01*
X756538Y2517124D01*
X763396Y2530586D01*
X777112Y2537444D01*
X783970Y2537444D01*
X797432Y2530586D01*
X804290Y2510266D01*
X804290Y2489692D01*
X797432Y2469372D01*
X783970Y2462514D01*
X661035Y2687558D02*
G01*
X804290Y2687558D01*
X661035Y2687558D02*
G01*
X661035Y2748772D01*
X667893Y2769346D01*
X674751Y2776204D01*
X688467Y2783062D01*
X708787Y2783062D01*
X722503Y2776204D01*
X729361Y2769346D01*
X736219Y2748772D01*
X736219Y2687558D01*
X708787Y2909808D02*
G01*
X804290Y2909808D01*
X729361Y2909808D02*
G01*
X715645Y2896092D01*
X708787Y2882376D01*
X708787Y2862056D01*
X715645Y2848340D01*
X729361Y2834878D01*
X749680Y2828020D01*
X763396Y2828020D01*
X783970Y2834878D01*
X797432Y2848340D01*
X804290Y2862056D01*
X804290Y2882376D01*
X797432Y2896092D01*
X783970Y2909808D01*
X708787Y3036554D02*
G01*
X818006Y3036554D01*
X838327Y3029696D01*
X845185Y3022838D01*
X852043Y3009376D01*
X852043Y2988802D01*
X845185Y2975340D01*
X729361Y3036554D02*
G01*
X715645Y3022838D01*
X708787Y3009376D01*
X708787Y2988802D01*
X715645Y2975340D01*
X729361Y2961624D01*
X749680Y2954766D01*
X763396Y2954766D01*
X783970Y2961624D01*
X797432Y2975340D01*
X804290Y2988802D01*
X804290Y3009376D01*
X797432Y3022838D01*
X783970Y3036554D01*
X708787Y3115802D02*
G01*
X715645Y3102086D01*
X729361Y3088370D01*
X749680Y3081512D01*
X763396Y3081512D01*
X783970Y3088370D01*
X797432Y3102086D01*
X804290Y3115802D01*
X804290Y3136122D01*
X797432Y3149838D01*
X783970Y3163300D01*
X763396Y3170158D01*
X749680Y3170158D01*
X729361Y3163300D01*
X715645Y3149838D01*
X708787Y3136122D01*
X708787Y3115802D01*
X708787Y3215116D02*
G01*
X804290Y3215116D01*
X736219Y3215116D02*
G01*
X715645Y3235690D01*
X708787Y3249406D01*
X708787Y3269726D01*
X715645Y3283442D01*
X736219Y3290300D01*
X804290Y3290300D01*
X661035Y3335258D02*
G01*
X667893Y3342116D01*
X661035Y3348974D01*
X654430Y3342116D01*
X661035Y3335258D01*
X708787Y3342116D02*
G01*
X804290Y3342116D01*
X729361Y3468862D02*
G01*
X715645Y3462004D01*
X708787Y3441684D01*
X708787Y3421110D01*
X715645Y3400790D01*
X729361Y3393932D01*
X743077Y3400790D01*
X749680Y3414252D01*
X756538Y3448288D01*
X763396Y3462004D01*
X777112Y3468862D01*
X783970Y3468862D01*
X797432Y3462004D01*
X804290Y3441684D01*
X804290Y3421110D01*
X797432Y3400790D01*
X783970Y3393932D01*
X912748Y2019284D02*
G01*
X912748Y1951212D01*
X974217Y1944354D01*
X967359Y1951212D01*
X960501Y1971532D01*
X960501Y1992106D01*
X967359Y2012426D01*
X980820Y2026142D01*
X1001395Y2033000D01*
X1015111Y2033000D01*
X1035430Y2026142D01*
X1049146Y2012426D01*
X1056004Y1992106D01*
X1056004Y1971532D01*
X1049146Y1951212D01*
X1042288Y1944354D01*
X1028572Y1937496D01*
X980820Y2152888D02*
G01*
X967359Y2146030D01*
X960501Y2125710D01*
X960501Y2105136D01*
X967359Y2084816D01*
X980820Y2077958D01*
X994537Y2084816D01*
X1001395Y2098278D01*
X1008253Y2132568D01*
X1015111Y2146030D01*
X1028572Y2152888D01*
X1035430Y2152888D01*
X1049146Y2146030D01*
X1056004Y2125710D01*
X1056004Y2105136D01*
X1049146Y2084816D01*
X1035430Y2077958D01*
X912748Y2303002D02*
G01*
X1056004Y2303002D01*
X912748Y2303002D02*
G01*
X912748Y2364216D01*
X919606Y2384790D01*
X926464Y2391648D01*
X939927Y2398506D01*
X953643Y2398506D01*
X967359Y2391648D01*
X974217Y2384790D01*
X980820Y2364216D01*
X980820Y2303002D02*
G01*
X980820Y2364216D01*
X987679Y2384790D01*
X994537Y2391648D01*
X1008253Y2398506D01*
X1028572Y2398506D01*
X1042288Y2391648D01*
X1049146Y2384790D01*
X1056004Y2364216D01*
X1056004Y2303002D01*
X912748Y2443464D02*
G01*
X1056004Y2443464D01*
X912748Y2443464D02*
G01*
X1056004Y2498074D01*
X912748Y2552430D02*
G01*
X1056004Y2498074D01*
X912748Y2552430D02*
G01*
X1056004Y2552430D01*
X933069Y2692892D02*
G01*
X919606Y2679430D01*
X912748Y2658856D01*
X912748Y2631678D01*
X919606Y2611104D01*
X933069Y2597388D01*
X946785Y2597388D01*
X960501Y2604246D01*
X967359Y2611104D01*
X974217Y2624820D01*
X987679Y2665714D01*
X994537Y2679430D01*
X1001395Y2686034D01*
X1015111Y2692892D01*
X1035430Y2692892D01*
X1049146Y2679430D01*
X1056004Y2658856D01*
X1056004Y2631678D01*
X1049146Y2611104D01*
X1035430Y2597388D01*
X960501Y2843006D02*
G01*
X1056004Y2883900D01*
X960501Y2924794D02*
G01*
X1056004Y2883900D01*
X939927Y2969752D02*
G01*
X933069Y2983468D01*
X912748Y3003788D01*
X1056004Y3003788D01*
X1021714Y3055604D02*
G01*
X1028572Y3048746D01*
X1035430Y3055604D01*
X1028572Y3062462D01*
X1021714Y3055604D01*
X912748Y3148314D02*
G01*
X919606Y3127994D01*
X939927Y3114278D01*
X974217Y3107420D01*
X994537Y3107420D01*
X1028572Y3114278D01*
X1049146Y3127994D01*
X1056004Y3148314D01*
X1056004Y3162030D01*
X1049146Y3182604D01*
X1028572Y3196066D01*
X994537Y3202924D01*
X974217Y3202924D01*
X939927Y3196066D01*
X919606Y3182604D01*
X912748Y3162030D01*
X912748Y3148314D01*
X249887Y3830065D02*
G01*
X249887Y3636010D01*
X249887Y3830065D02*
G01*
X333199Y3830065D01*
X360885Y3820921D01*
X370029Y3811523D01*
X379427Y3792981D01*
X379427Y3774694D01*
X370029Y3756152D01*
X360885Y3747007D01*
X333199Y3737610D01*
X249887Y3737610D02*
G01*
X333199Y3737610D01*
X360885Y3728465D01*
X370029Y3719321D01*
X379427Y3700779D01*
X379427Y3673094D01*
X370029Y3654552D01*
X360885Y3645407D01*
X333199Y3636010D01*
X249887Y3636010D01*
X523445Y3802379D02*
G01*
X523445Y3636010D01*
X440387Y3719321D02*
G01*
X606503Y3719321D01*
X249920Y1892554D02*
G01*
X249920Y1698497D01*
X249920Y1892554D02*
G01*
X333232Y1892554D01*
X360918Y1883410D01*
X370062Y1874012D01*
X379206Y1855723D01*
X379206Y1837181D01*
X370062Y1818639D01*
X360918Y1809495D01*
X333232Y1800097D01*
X249920Y1800097D02*
G01*
X333232Y1800097D01*
X360918Y1790954D01*
X370062Y1781810D01*
X379206Y1763268D01*
X379206Y1735581D01*
X370062Y1717039D01*
X360918Y1707895D01*
X333232Y1698497D01*
X249920Y1698497D01*
X440166Y1781810D02*
G01*
X606536Y1781810D01*
D11*
X8037083Y955215D02*
G01*
X8037083Y846249D01*
X8109727Y955215D02*
G01*
X8109727Y846249D01*
X8037083Y903399D02*
G01*
X8109727Y903399D01*
X8144017Y934387D02*
G01*
X8154431Y939721D01*
X8170179Y955215D01*
X8170179Y846249D01*
X9116900Y1118359D02*
G01*
X9105765Y1121951D01*
X9091035Y1121951D01*
X9080261Y1118359D01*
X9065531Y1103629D01*
X9061759Y1092674D01*
X9061759Y1077948D01*
X9065353Y1066812D01*
X9072895Y1052085D01*
X9091216Y1033764D01*
X9105765Y1026401D01*
X9116900Y1022809D01*
X9131627Y1022809D01*
X9142582Y1026581D01*
X9157312Y1041308D01*
X9160903Y1052085D01*
X9160903Y1066812D01*
X9157312Y1077948D01*
X9196285Y1183017D02*
G01*
X9203469Y1168288D01*
X9203469Y1153561D01*
X9196285Y1138834D01*
X9192694Y1135242D01*
X9177787Y1127876D01*
X9163057Y1127876D01*
X9148511Y1135242D01*
X9144916Y1138834D01*
X9137375Y1153561D01*
X9137375Y1168288D01*
X9144916Y1183017D01*
X9148511Y1186609D01*
X9163057Y1193972D01*
X9177787Y1193972D01*
X9196285Y1183017D01*
X9214604Y1164696D01*
X9229331Y1142425D01*
X9232925Y1124104D01*
X9225561Y1109558D01*
X9218195Y1102194D01*
X9203649Y1094831D01*
X9192513Y1098422D01*
X9491898Y1493357D02*
G01*
X9480763Y1496948D01*
X9466033Y1496948D01*
X9455259Y1493357D01*
X9440529Y1478627D01*
X9436757Y1467672D01*
X9436757Y1452946D01*
X9440351Y1441810D01*
X9447893Y1427083D01*
X9466214Y1408762D01*
X9480763Y1401399D01*
X9491898Y1397807D01*
X9506625Y1397807D01*
X9517580Y1401579D01*
X9532310Y1416306D01*
X9535901Y1427083D01*
X9535901Y1441810D01*
X9532310Y1452946D01*
X9512551Y1521195D02*
G01*
X9516145Y1532331D01*
X9516145Y1554243D01*
X9593193Y1477192D01*
X9562482Y1600580D02*
G01*
X9554938Y1585854D01*
X9558891Y1567533D01*
X9573437Y1545442D01*
X9584395Y1534485D01*
X9606666Y1519758D01*
X9624806Y1515986D01*
X9639533Y1523530D01*
X9646897Y1530893D01*
X9654260Y1545442D01*
X9650669Y1563761D01*
X9635761Y1585854D01*
X9624806Y1596809D01*
X9602894Y1611536D01*
X9584395Y1615307D01*
X9569846Y1607944D01*
X9562482Y1600580D01*
X8706525Y2043455D02*
G01*
X8578108Y2069137D01*
X8655159Y1992086D02*
G01*
X8629474Y2120503D01*
X8616185Y1982569D02*
G01*
X8612591Y1971433D01*
X8612413Y1949340D01*
X8535362Y2026391D01*
X8890518Y4651791D02*
G01*
X8885184Y4662205D01*
X8874770Y4672619D01*
X8864356Y4677953D01*
X8843528Y4677953D01*
X8833368Y4672619D01*
X8822954Y4662205D01*
X8817620Y4651791D01*
X8812540Y4636297D01*
X8812540Y4610389D01*
X8817620Y4594641D01*
X8822954Y4584227D01*
X8833368Y4573813D01*
X8843528Y4568733D01*
X8864356Y4568733D01*
X8874770Y4573813D01*
X8885184Y4584227D01*
X8890518Y4594641D01*
X8950716Y4677953D02*
G01*
X8934968Y4672619D01*
X8929888Y4662205D01*
X8929888Y4651791D01*
X8934968Y4641377D01*
X8945382Y4636297D01*
X8966210Y4630963D01*
X8981958Y4625883D01*
X8992118Y4615469D01*
X8997452Y4605055D01*
X8997452Y4589561D01*
X8992118Y4579147D01*
X8987038Y4573813D01*
X8971544Y4568733D01*
X8950716Y4568733D01*
X8934968Y4573813D01*
X8929888Y4579147D01*
X8924808Y4589561D01*
X8924808Y4605055D01*
X8929888Y4615469D01*
X8940302Y4625883D01*
X8955796Y4630963D01*
X8976624Y4636297D01*
X8987038Y4641377D01*
X8992118Y4651791D01*
X8992118Y4662205D01*
X8987038Y4672619D01*
X8971544Y4677953D01*
X8950716Y4677953D01*
X6677962Y1139408D02*
G01*
X6672628Y1149822D01*
X6662214Y1160236D01*
X6652054Y1165316D01*
X6631226Y1165316D01*
X6620812Y1160236D01*
X6610398Y1149822D01*
X6605064Y1139408D01*
X6599984Y1123660D01*
X6599984Y1097752D01*
X6605064Y1082258D01*
X6610398Y1071844D01*
X6620812Y1061430D01*
X6631226Y1056350D01*
X6652054Y1056350D01*
X6662214Y1061430D01*
X6672628Y1071844D01*
X6677962Y1082258D01*
X6784896Y1165316D02*
G01*
X6733080Y1056350D01*
X6712252Y1165316D02*
G01*
X6784896Y1165316D01*
X4711733Y1925482D02*
G01*
X4701319Y1920402D01*
X4690905Y1909988D01*
X4685571Y1899574D01*
X4680491Y1883826D01*
X4680491Y1857918D01*
X4685571Y1842424D01*
X4690905Y1832010D01*
X4701319Y1821596D01*
X4711733Y1816516D01*
X4732561Y1816516D01*
X4742721Y1821596D01*
X4753135Y1832010D01*
X4758469Y1842424D01*
X4763549Y1857918D01*
X4763549Y1883826D01*
X4758469Y1899574D01*
X4753135Y1909988D01*
X4742721Y1920402D01*
X4732561Y1925482D01*
X4711733Y1925482D01*
X4727227Y1837090D02*
G01*
X4758469Y1806102D01*
X4797839Y1904654D02*
G01*
X4808253Y1909988D01*
X4824001Y1925482D01*
X4824001Y1816516D01*
X4711733Y2800482D02*
G01*
X4701319Y2795402D01*
X4690905Y2784988D01*
X4685571Y2774574D01*
X4680491Y2758826D01*
X4680491Y2732918D01*
X4685571Y2717424D01*
X4690905Y2707010D01*
X4701319Y2696596D01*
X4711733Y2691516D01*
X4732561Y2691516D01*
X4742721Y2696596D01*
X4753135Y2707010D01*
X4758469Y2717424D01*
X4763549Y2732918D01*
X4763549Y2758826D01*
X4758469Y2774574D01*
X4753135Y2784988D01*
X4742721Y2795402D01*
X4732561Y2800482D01*
X4711733Y2800482D01*
X4727227Y2712090D02*
G01*
X4758469Y2681102D01*
X4803173Y2774574D02*
G01*
X4803173Y2779654D01*
X4808253Y2790068D01*
X4813587Y2795402D01*
X4824001Y2800482D01*
X4844575Y2800482D01*
X4854989Y2795402D01*
X4860323Y2790068D01*
X4865403Y2779654D01*
X4865403Y2769240D01*
X4860323Y2758826D01*
X4849909Y2743332D01*
X4797839Y2691516D01*
X4870737Y2691516D01*
X4711733Y3675481D02*
G01*
X4701319Y3670401D01*
X4690905Y3659987D01*
X4685571Y3649573D01*
X4680491Y3633825D01*
X4680491Y3607917D01*
X4685571Y3592423D01*
X4690905Y3582009D01*
X4701319Y3571595D01*
X4711733Y3566515D01*
X4732561Y3566515D01*
X4742721Y3571595D01*
X4753135Y3582009D01*
X4758469Y3592423D01*
X4763549Y3607917D01*
X4763549Y3633825D01*
X4758469Y3649573D01*
X4753135Y3659987D01*
X4742721Y3670401D01*
X4732561Y3675481D01*
X4711733Y3675481D01*
X4727227Y3587089D02*
G01*
X4758469Y3556101D01*
X4808253Y3675481D02*
G01*
X4865403Y3675481D01*
X4834161Y3633825D01*
X4849909Y3633825D01*
X4860323Y3628745D01*
X4865403Y3623665D01*
X4870737Y3607917D01*
X4870737Y3597503D01*
X4865403Y3582009D01*
X4854989Y3571595D01*
X4839495Y3566515D01*
X4824001Y3566515D01*
X4808253Y3571595D01*
X4803173Y3576675D01*
X4797839Y3587089D01*
X4711733Y4550478D02*
G01*
X4701319Y4545398D01*
X4690905Y4534984D01*
X4685571Y4524570D01*
X4680491Y4508822D01*
X4680491Y4482914D01*
X4685571Y4467420D01*
X4690905Y4457006D01*
X4701319Y4446592D01*
X4711733Y4441512D01*
X4732561Y4441512D01*
X4742721Y4446592D01*
X4753135Y4457006D01*
X4758469Y4467420D01*
X4763549Y4482914D01*
X4763549Y4508822D01*
X4758469Y4524570D01*
X4753135Y4534984D01*
X4742721Y4545398D01*
X4732561Y4550478D01*
X4711733Y4550478D01*
X4727227Y4462086D02*
G01*
X4758469Y4431098D01*
X4849909Y4550478D02*
G01*
X4797839Y4477834D01*
X4875817Y4477834D01*
X4849909Y4550478D02*
G01*
X4849909Y4441512D01*
X4711733Y1050485D02*
G01*
X4701319Y1045405D01*
X4690905Y1034991D01*
X4685571Y1024577D01*
X4680491Y1008829D01*
X4680491Y982921D01*
X4685571Y967427D01*
X4690905Y957013D01*
X4701319Y946599D01*
X4711733Y941519D01*
X4732561Y941519D01*
X4742721Y946599D01*
X4753135Y957013D01*
X4758469Y967427D01*
X4763549Y982921D01*
X4763549Y1008829D01*
X4758469Y1024577D01*
X4753135Y1034991D01*
X4742721Y1045405D01*
X4732561Y1050485D01*
X4711733Y1050485D01*
X4727227Y962093D02*
G01*
X4758469Y931105D01*
X4860323Y1050485D02*
G01*
X4808253Y1050485D01*
X4803173Y1003749D01*
X4808253Y1008829D01*
X4824001Y1014163D01*
X4839495Y1014163D01*
X4854989Y1008829D01*
X4865403Y998669D01*
X4870737Y982921D01*
X4870737Y972507D01*
X4865403Y957013D01*
X4854989Y946599D01*
X4839495Y941519D01*
X4824001Y941519D01*
X4808253Y946599D01*
X4803173Y951679D01*
X4797839Y962093D01*
X7062505Y1740321D02*
G01*
X7062505Y1631355D01*
X7062505Y1740321D02*
G01*
X7109241Y1740321D01*
X7124735Y1735241D01*
X7130069Y1729907D01*
X7135149Y1719493D01*
X7135149Y1709079D01*
X7130069Y1698665D01*
X7124735Y1693585D01*
X7109241Y1688505D01*
X7062505Y1688505D01*
X7098827Y1688505D02*
G01*
X7135149Y1631355D01*
X7221509Y1740321D02*
G01*
X7169439Y1667677D01*
X7247417Y1667677D01*
X7221509Y1740321D02*
G01*
X7221509Y1631355D01*
X7333777Y1740321D02*
G01*
X7281707Y1667677D01*
X7359685Y1667677D01*
X7333777Y1740321D02*
G01*
X7333777Y1631355D01*
X7062495Y2677795D02*
G01*
X7062495Y2568829D01*
X7062495Y2677795D02*
G01*
X7109231Y2677795D01*
X7124725Y2672714D01*
X7130059Y2667380D01*
X7135139Y2656967D01*
X7135139Y2646553D01*
X7130059Y2636138D01*
X7124725Y2631059D01*
X7109231Y2625979D01*
X7062495Y2625979D01*
X7098817Y2625979D02*
G01*
X7135139Y2568829D01*
X7221499Y2677795D02*
G01*
X7169429Y2605151D01*
X7247407Y2605151D01*
X7221499Y2677795D02*
G01*
X7221499Y2568829D01*
X7344181Y2677795D02*
G01*
X7292111Y2677795D01*
X7287031Y2631059D01*
X7292111Y2636138D01*
X7307605Y2641472D01*
X7323353Y2641472D01*
X7338847Y2636138D01*
X7349261Y2625979D01*
X7354595Y2610230D01*
X7354595Y2599817D01*
X7349261Y2584322D01*
X7338847Y2573909D01*
X7323353Y2568829D01*
X7307605Y2568829D01*
X7292111Y2573909D01*
X7287031Y2578988D01*
X7281697Y2589403D01*
X7062500Y3552819D02*
G01*
X7062500Y3443853D01*
X7062500Y3552819D02*
G01*
X7109236Y3552819D01*
X7124730Y3547739D01*
X7130064Y3542405D01*
X7135144Y3531991D01*
X7135144Y3521577D01*
X7130064Y3511163D01*
X7124730Y3506083D01*
X7109236Y3501003D01*
X7062500Y3501003D01*
X7098822Y3501003D02*
G01*
X7135144Y3443853D01*
X7221504Y3552819D02*
G01*
X7169434Y3480175D01*
X7247412Y3480175D01*
X7221504Y3552819D02*
G01*
X7221504Y3443853D01*
X7344186Y3537325D02*
G01*
X7338852Y3547739D01*
X7323358Y3552819D01*
X7312944Y3552819D01*
X7297450Y3547739D01*
X7287036Y3531991D01*
X7281702Y3506083D01*
X7281702Y3480175D01*
X7287036Y3459347D01*
X7297450Y3448933D01*
X7312944Y3443853D01*
X7318024Y3443853D01*
X7333772Y3448933D01*
X7344186Y3459347D01*
X7349266Y3474841D01*
X7349266Y3480175D01*
X7344186Y3495669D01*
X7333772Y3506083D01*
X7318024Y3511163D01*
X7312944Y3511163D01*
X7297450Y3506083D01*
X7287036Y3495669D01*
X7281702Y3480175D01*
X7062482Y4427791D02*
G01*
X7062482Y4318825D01*
X7062482Y4427791D02*
G01*
X7109218Y4427791D01*
X7124712Y4422711D01*
X7130046Y4417377D01*
X7135126Y4406963D01*
X7135126Y4396549D01*
X7130046Y4386135D01*
X7124712Y4381055D01*
X7109218Y4375975D01*
X7062482Y4375975D01*
X7098804Y4375975D02*
G01*
X7135126Y4318825D01*
X7221486Y4427791D02*
G01*
X7169416Y4355147D01*
X7247394Y4355147D01*
X7221486Y4427791D02*
G01*
X7221486Y4318825D01*
X7354582Y4427791D02*
G01*
X7302512Y4318825D01*
X7281684Y4427791D02*
G01*
X7354582Y4427791D01*
X7062462Y865299D02*
G01*
X7062462Y756333D01*
X7062462Y865299D02*
G01*
X7109198Y865299D01*
X7124692Y860219D01*
X7130026Y854885D01*
X7135106Y844471D01*
X7135106Y834057D01*
X7130026Y823643D01*
X7124692Y818563D01*
X7109198Y813483D01*
X7062462Y813483D01*
X7098784Y813483D02*
G01*
X7135106Y756333D01*
X7221466Y865299D02*
G01*
X7169396Y792655D01*
X7247374Y792655D01*
X7221466Y865299D02*
G01*
X7221466Y756333D01*
X7307572Y865299D02*
G01*
X7292078Y860219D01*
X7286998Y849805D01*
X7286998Y839391D01*
X7292078Y828977D01*
X7302492Y823643D01*
X7323320Y818563D01*
X7338814Y813483D01*
X7349228Y803069D01*
X7354562Y792655D01*
X7354562Y776907D01*
X7349228Y766493D01*
X7344148Y761413D01*
X7328400Y756333D01*
X7307572Y756333D01*
X7292078Y761413D01*
X7286998Y766493D01*
X7281664Y776907D01*
X7281664Y792655D01*
X7286998Y803069D01*
X7297412Y813483D01*
X7312906Y818563D01*
X7333734Y823643D01*
X7344148Y828977D01*
X7349228Y839391D01*
X7349228Y849805D01*
X7344148Y860219D01*
X7328400Y865299D01*
X7307572Y865299D01*
X5499988Y865327D02*
G01*
X5499988Y787349D01*
X5505068Y771855D01*
X5515483Y761441D01*
X5531231Y756361D01*
X5541645Y756361D01*
X5557138Y761441D01*
X5567552Y771855D01*
X5572633Y787349D01*
X5572633Y865327D01*
X5679820Y865327D02*
G01*
X5627750Y756361D01*
X5606922Y865327D02*
G01*
X5679820Y865327D01*
X9005666Y2952462D02*
G01*
X9088724Y2952462D01*
X9104472Y2947128D01*
X9109552Y2942048D01*
X9114632Y2931634D01*
X9114632Y2921220D01*
X9109552Y2910806D01*
X9104472Y2905472D01*
X9088724Y2900392D01*
X9078310Y2900392D01*
X9031574Y2991832D02*
G01*
X9026494Y2991832D01*
X9016080Y2996912D01*
X9010746Y3002246D01*
X9005666Y3012660D01*
X9005666Y3033488D01*
X9010746Y3043902D01*
X9016080Y3048982D01*
X9026494Y3054062D01*
X9036908Y3054062D01*
X9047322Y3048982D01*
X9062816Y3038568D01*
X9114632Y2986752D01*
X9114632Y3059396D01*
X7348075Y4577948D02*
G01*
X7337661Y4572614D01*
X7327247Y4562200D01*
X7322167Y4552040D01*
X7322167Y4531212D01*
X7327247Y4520798D01*
X7337661Y4510384D01*
X7348075Y4505050D01*
X7363823Y4499970D01*
X7389731Y4499970D01*
X7405225Y4505050D01*
X7415639Y4510384D01*
X7426053Y4520798D01*
X7431133Y4531212D01*
X7431133Y4552040D01*
X7426053Y4562200D01*
X7415639Y4572614D01*
X7405225Y4577948D01*
X7342995Y4612238D02*
G01*
X7337661Y4622652D01*
X7322167Y4638146D01*
X7431133Y4638146D01*
X8464384Y4609513D02*
G01*
X8474798Y4614847D01*
X8485212Y4625261D01*
X8490292Y4635421D01*
X8490292Y4656249D01*
X8485212Y4666663D01*
X8474798Y4677077D01*
X8464384Y4682411D01*
X8448636Y4687491D01*
X8422728Y4687491D01*
X8407234Y4682411D01*
X8396820Y4677077D01*
X8386406Y4666663D01*
X8381326Y4656249D01*
X8381326Y4635421D01*
X8386406Y4625261D01*
X8396820Y4614847D01*
X8407234Y4609513D01*
X8464384Y4570143D02*
G01*
X8469464Y4570143D01*
X8479878Y4564809D01*
X8485212Y4559729D01*
X8490292Y4549315D01*
X8490292Y4528487D01*
X8485212Y4518073D01*
X8479878Y4512993D01*
X8469464Y4507659D01*
X8459050Y4507659D01*
X8448636Y4512993D01*
X8433142Y4523407D01*
X8381326Y4575223D01*
X8381326Y4502579D01*
X6677959Y1989391D02*
G01*
X6672625Y1999805D01*
X6662211Y2010219D01*
X6652051Y2015299D01*
X6631223Y2015299D01*
X6620809Y2010219D01*
X6610395Y1999805D01*
X6605061Y1989391D01*
X6599981Y1973643D01*
X6599981Y1947735D01*
X6605061Y1932241D01*
X6610395Y1921827D01*
X6620809Y1911413D01*
X6631223Y1906333D01*
X6652051Y1906333D01*
X6662211Y1911413D01*
X6672625Y1921827D01*
X6677959Y1932241D01*
X6722663Y2015299D02*
G01*
X6779813Y2015299D01*
X6748571Y1973643D01*
X6764065Y1973643D01*
X6774479Y1968563D01*
X6779813Y1963483D01*
X6784893Y1947735D01*
X6784893Y1937321D01*
X6779813Y1921827D01*
X6769399Y1911413D01*
X6753651Y1906333D01*
X6738157Y1906333D01*
X6722663Y1911413D01*
X6717329Y1916493D01*
X6712249Y1926907D01*
X7727873Y3334603D02*
G01*
X7783014Y3279462D01*
X7797561Y3272099D01*
X7812288Y3272099D01*
X7827017Y3279642D01*
X7834381Y3287006D01*
X7841744Y3301555D01*
X7841744Y3316282D01*
X7834381Y3330831D01*
X7779242Y3385969D01*
X7818216Y3395489D02*
G01*
X7821808Y3406625D01*
X7821988Y3428715D01*
X7899039Y3351664D01*
X6677969Y2939392D02*
G01*
X6672635Y2949806D01*
X6662221Y2960220D01*
X6652061Y2965300D01*
X6631233Y2965300D01*
X6620819Y2960220D01*
X6610405Y2949806D01*
X6605071Y2939392D01*
X6599991Y2923644D01*
X6599991Y2897736D01*
X6605071Y2882242D01*
X6610405Y2871828D01*
X6620819Y2861414D01*
X6631233Y2856334D01*
X6652061Y2856334D01*
X6662221Y2861414D01*
X6672635Y2871828D01*
X6677969Y2882242D01*
X6764075Y2965300D02*
G01*
X6712259Y2892656D01*
X6790237Y2892656D01*
X6764075Y2965300D02*
G01*
X6764075Y2856334D01*
X6677964Y3814404D02*
G01*
X6672630Y3824818D01*
X6662216Y3835232D01*
X6652056Y3840312D01*
X6631228Y3840312D01*
X6620814Y3835232D01*
X6610400Y3824818D01*
X6605066Y3814404D01*
X6599986Y3798656D01*
X6599986Y3772748D01*
X6605066Y3757254D01*
X6610400Y3746840D01*
X6620814Y3736426D01*
X6631228Y3731346D01*
X6652056Y3731346D01*
X6662216Y3736426D01*
X6672630Y3746840D01*
X6677964Y3757254D01*
X6774484Y3840312D02*
G01*
X6722668Y3840312D01*
X6717334Y3793576D01*
X6722668Y3798656D01*
X6738162Y3803990D01*
X6753656Y3803990D01*
X6769404Y3798656D01*
X6779818Y3788496D01*
X6784898Y3772748D01*
X6784898Y3762334D01*
X6779818Y3746840D01*
X6769404Y3736426D01*
X6753656Y3731346D01*
X6738162Y3731346D01*
X6722668Y3736426D01*
X6717334Y3741506D01*
X6712254Y3751920D01*
X6677964Y4689381D02*
G01*
X6672630Y4699795D01*
X6662216Y4710209D01*
X6652056Y4715289D01*
X6631228Y4715289D01*
X6620814Y4710209D01*
X6610400Y4699795D01*
X6605066Y4689381D01*
X6599986Y4673633D01*
X6599986Y4647725D01*
X6605066Y4632231D01*
X6610400Y4621817D01*
X6620814Y4611403D01*
X6631228Y4606323D01*
X6652056Y4606323D01*
X6662216Y4611403D01*
X6672630Y4621817D01*
X6677964Y4632231D01*
X6774484Y4699795D02*
G01*
X6769404Y4710209D01*
X6753656Y4715289D01*
X6743496Y4715289D01*
X6727748Y4710209D01*
X6717334Y4694461D01*
X6712254Y4668553D01*
X6712254Y4642645D01*
X6717334Y4621817D01*
X6727748Y4611403D01*
X6743496Y4606323D01*
X6748576Y4606323D01*
X6764070Y4611403D01*
X6774484Y4621817D01*
X6779818Y4637311D01*
X6779818Y4642645D01*
X6774484Y4658139D01*
X6764070Y4668553D01*
X6748576Y4673633D01*
X6743496Y4673633D01*
X6727748Y4668553D01*
X6717334Y4658139D01*
X6712254Y4642645D01*
X2365308Y2624996D02*
G01*
X2256342Y2624996D01*
X2365308Y2624996D02*
G01*
X2365308Y2578260D01*
X2360228Y2562766D01*
X2354894Y2557432D01*
X2344480Y2552352D01*
X2334066Y2552352D01*
X2323652Y2557432D01*
X2318572Y2562766D01*
X2313492Y2578260D01*
X2313492Y2624996D01*
X2313492Y2588674D02*
G01*
X2256342Y2552352D01*
X2339400Y2512728D02*
G01*
X2344480Y2512728D01*
X2354894Y2507648D01*
X2360228Y2502314D01*
X2365308Y2491900D01*
X2365308Y2471326D01*
X2360228Y2460912D01*
X2354894Y2455578D01*
X2344480Y2450498D01*
X2334066Y2450498D01*
X2323652Y2455578D01*
X2308158Y2465992D01*
X2256342Y2518062D01*
X2256342Y2445164D01*
X2365308Y2379886D02*
G01*
X2360228Y2395380D01*
X2344480Y2405794D01*
X2318572Y2410874D01*
X2303078Y2410874D01*
X2276916Y2405794D01*
X2261422Y2395380D01*
X2256342Y2379886D01*
X2256342Y2369472D01*
X2261422Y2353724D01*
X2276916Y2343310D01*
X2303078Y2338230D01*
X2318572Y2338230D01*
X2344480Y2343310D01*
X2360228Y2353724D01*
X2365308Y2369472D01*
X2365308Y2379886D01*
X2365308Y3499993D02*
G01*
X2256342Y3499993D01*
X2365308Y3499993D02*
G01*
X2365308Y3453256D01*
X2360228Y3437762D01*
X2354894Y3432429D01*
X2344480Y3427348D01*
X2334066Y3427348D01*
X2323652Y3432429D01*
X2318572Y3437762D01*
X2313492Y3453256D01*
X2313492Y3499993D01*
X2313492Y3463670D02*
G01*
X2256342Y3427348D01*
X2365308Y3382645D02*
G01*
X2365308Y3325495D01*
X2323652Y3356482D01*
X2323652Y3340988D01*
X2318572Y3330575D01*
X2313492Y3325495D01*
X2297744Y3320161D01*
X2287330Y3320161D01*
X2271836Y3325495D01*
X2261422Y3335909D01*
X2256342Y3351403D01*
X2256342Y3366896D01*
X2261422Y3382645D01*
X2266502Y3387725D01*
X2276916Y3393059D01*
X2365308Y3254882D02*
G01*
X2360228Y3270377D01*
X2344480Y3280790D01*
X2318572Y3285870D01*
X2303078Y3285870D01*
X2276916Y3280790D01*
X2261422Y3270377D01*
X2256342Y3254882D01*
X2256342Y3244469D01*
X2261422Y3228720D01*
X2276916Y3218306D01*
X2303078Y3213227D01*
X2318572Y3213227D01*
X2344480Y3218306D01*
X2360228Y3228720D01*
X2365308Y3244469D01*
X2365308Y3254882D01*
X2365308Y4374992D02*
G01*
X2256342Y4374992D01*
X2365308Y4374992D02*
G01*
X2365308Y4328256D01*
X2360228Y4312762D01*
X2354894Y4307428D01*
X2344480Y4302348D01*
X2334066Y4302348D01*
X2323652Y4307428D01*
X2318572Y4312762D01*
X2313492Y4328256D01*
X2313492Y4374992D01*
X2313492Y4338670D02*
G01*
X2256342Y4302348D01*
X2365308Y4215988D02*
G01*
X2292664Y4268058D01*
X2292664Y4190080D01*
X2365308Y4215988D02*
G01*
X2256342Y4215988D01*
X2365308Y4124548D02*
G01*
X2360228Y4140042D01*
X2344480Y4150456D01*
X2318572Y4155790D01*
X2303078Y4155790D01*
X2276916Y4150456D01*
X2261422Y4140042D01*
X2256342Y4124548D01*
X2256342Y4114134D01*
X2261422Y4098640D01*
X2276916Y4088226D01*
X2303078Y4082892D01*
X2318572Y4082892D01*
X2344480Y4088226D01*
X2360228Y4098640D01*
X2365308Y4114134D01*
X2365308Y4124548D01*
X2365308Y874999D02*
G01*
X2256342Y874999D01*
X2365308Y874999D02*
G01*
X2365308Y828263D01*
X2360228Y812769D01*
X2354894Y807435D01*
X2344480Y802355D01*
X2334066Y802355D01*
X2323652Y807435D01*
X2318572Y812769D01*
X2313492Y828263D01*
X2313492Y874999D01*
X2313492Y838677D02*
G01*
X2256342Y802355D01*
X2365308Y715995D02*
G01*
X2292664Y768065D01*
X2292664Y690087D01*
X2365308Y715995D02*
G01*
X2256342Y715995D01*
X2365308Y645383D02*
G01*
X2365308Y588233D01*
X2323652Y619475D01*
X2323652Y603727D01*
X2318572Y593313D01*
X2313492Y588233D01*
X2297744Y582899D01*
X2287330Y582899D01*
X2271836Y588233D01*
X2261422Y598647D01*
X2256342Y614141D01*
X2256342Y629889D01*
X2261422Y645383D01*
X2266502Y650463D01*
X2276916Y655797D01*
X2365303Y1687484D02*
G01*
X2256337Y1687484D01*
X2365303Y1687484D02*
G01*
X2365303Y1640748D01*
X2360223Y1625254D01*
X2354889Y1619920D01*
X2344475Y1614840D01*
X2334061Y1614840D01*
X2323647Y1619920D01*
X2318567Y1625254D01*
X2313487Y1640748D01*
X2313487Y1687484D01*
X2313487Y1651162D02*
G01*
X2256337Y1614840D01*
X2365303Y1570136D02*
G01*
X2365303Y1512986D01*
X2323647Y1543974D01*
X2323647Y1528480D01*
X2318567Y1518066D01*
X2313487Y1512986D01*
X2297739Y1507652D01*
X2287325Y1507652D01*
X2271831Y1512986D01*
X2261417Y1523400D01*
X2256337Y1538894D01*
X2256337Y1554388D01*
X2261417Y1570136D01*
X2266497Y1575216D01*
X2276911Y1580550D01*
X7435682Y1935690D02*
G01*
X7512733Y2012741D01*
X7435682Y1935690D02*
G01*
X7402634Y1968738D01*
X7395270Y1983285D01*
X7395270Y1990829D01*
X7399042Y2001784D01*
X7406406Y2009150D01*
X7417361Y2012922D01*
X7424727Y2012741D01*
X7439273Y2005378D01*
X7472321Y1972330D01*
X7446637Y1998014D02*
G01*
X7461366Y2064108D01*
X7374796Y2026030D02*
G01*
X7363660Y2029625D01*
X7341570Y2029802D01*
X7418618Y2106853D01*
X4312394Y1365255D02*
G01*
X4312394Y1256289D01*
X4312394Y1365255D02*
G01*
X4359130Y1365255D01*
X4374878Y1360175D01*
X4379958Y1354841D01*
X4385292Y1344681D01*
X4385292Y1334267D01*
X4379958Y1323853D01*
X4374878Y1318519D01*
X4359130Y1313439D01*
X4312394Y1313439D01*
X4348970Y1313439D02*
G01*
X4385292Y1256289D01*
X4424662Y1339347D02*
G01*
X4424662Y1344681D01*
X4429996Y1354841D01*
X4435076Y1360175D01*
X4445490Y1365255D01*
X4466318Y1365255D01*
X4476732Y1360175D01*
X4481812Y1354841D01*
X4487146Y1344681D01*
X4487146Y1334267D01*
X4481812Y1323853D01*
X4471398Y1308105D01*
X4419582Y1256289D01*
X4492226Y1256289D01*
X4250014Y2240305D02*
G01*
X4250014Y2131339D01*
X4250014Y2240305D02*
G01*
X4296750Y2240305D01*
X4312244Y2235225D01*
X4317578Y2229891D01*
X4322658Y2219477D01*
X4322658Y2209063D01*
X4317578Y2198649D01*
X4312244Y2193569D01*
X4296750Y2188489D01*
X4250014Y2188489D01*
X4286336Y2188489D02*
G01*
X4322658Y2131339D01*
X4362282Y2214397D02*
G01*
X4362282Y2219477D01*
X4367362Y2229891D01*
X4372696Y2235225D01*
X4383110Y2240305D01*
X4403684Y2240305D01*
X4414098Y2235225D01*
X4419432Y2229891D01*
X4424512Y2219477D01*
X4424512Y2209063D01*
X4419432Y2198649D01*
X4409018Y2183155D01*
X4356948Y2131339D01*
X4429846Y2131339D01*
X4464136Y2219477D02*
G01*
X4474550Y2224811D01*
X4490044Y2240305D01*
X4490044Y2131339D01*
X4250029Y3115294D02*
G01*
X4250029Y3006328D01*
X4250029Y3115294D02*
G01*
X4296765Y3115294D01*
X4312259Y3110214D01*
X4317593Y3104880D01*
X4322673Y3094466D01*
X4322673Y3084052D01*
X4317593Y3073638D01*
X4312259Y3068558D01*
X4296765Y3063478D01*
X4250029Y3063478D01*
X4286351Y3063478D02*
G01*
X4322673Y3006328D01*
X4367377Y3115294D02*
G01*
X4424527Y3115294D01*
X4393285Y3073638D01*
X4409033Y3073638D01*
X4419447Y3068558D01*
X4424527Y3063478D01*
X4429861Y3047730D01*
X4429861Y3037316D01*
X4424527Y3021822D01*
X4414113Y3011408D01*
X4398619Y3006328D01*
X4383125Y3006328D01*
X4367377Y3011408D01*
X4362297Y3016488D01*
X4356963Y3026902D01*
X4464151Y3094466D02*
G01*
X4474565Y3099800D01*
X4490059Y3115294D01*
X4490059Y3006328D01*
X4250029Y3990296D02*
G01*
X4250029Y3881330D01*
X4250029Y3990296D02*
G01*
X4296765Y3990296D01*
X4312259Y3985216D01*
X4317593Y3979882D01*
X4322673Y3969468D01*
X4322673Y3959054D01*
X4317593Y3948640D01*
X4312259Y3943560D01*
X4296765Y3938480D01*
X4250029Y3938480D01*
X4286351Y3938480D02*
G01*
X4322673Y3881330D01*
X4409033Y3990296D02*
G01*
X4356963Y3917652D01*
X4434941Y3917652D01*
X4409033Y3990296D02*
G01*
X4409033Y3881330D01*
X4469231Y3969468D02*
G01*
X4479645Y3974802D01*
X4495139Y3990296D01*
X4495139Y3881330D01*
X4250039Y490303D02*
G01*
X4250039Y381337D01*
X4250039Y490303D02*
G01*
X4296775Y490303D01*
X4312269Y485223D01*
X4317603Y479889D01*
X4322683Y469475D01*
X4322683Y459061D01*
X4317603Y448647D01*
X4312269Y443567D01*
X4296775Y438487D01*
X4250039Y438487D01*
X4286361Y438487D02*
G01*
X4322683Y381337D01*
X4409043Y490303D02*
G01*
X4356973Y417659D01*
X4434951Y417659D01*
X4409043Y490303D02*
G01*
X4409043Y381337D01*
X4474321Y464395D02*
G01*
X4474321Y469475D01*
X4479655Y479889D01*
X4484735Y485223D01*
X4495149Y490303D01*
X4515977Y490303D01*
X4526391Y485223D01*
X4531471Y479889D01*
X4536805Y469475D01*
X4536805Y459061D01*
X4531471Y448647D01*
X4521311Y433153D01*
X4469241Y381337D01*
X4541885Y381337D01*
X7500000Y4115313D02*
G01*
X7500000Y4037335D01*
X7505080Y4021841D01*
X7515494Y4011427D01*
X7531242Y4006347D01*
X7541656Y4006347D01*
X7557150Y4011427D01*
X7567564Y4021841D01*
X7572644Y4037335D01*
X7572644Y4115313D01*
X7669418Y4099819D02*
G01*
X7664084Y4110233D01*
X7648590Y4115313D01*
X7638176Y4115313D01*
X7622682Y4110233D01*
X7612268Y4094485D01*
X7606934Y4068577D01*
X7606934Y4042669D01*
X7612268Y4021841D01*
X7622682Y4011427D01*
X7638176Y4006347D01*
X7643510Y4006347D01*
X7659004Y4011427D01*
X7669418Y4021841D01*
X7674498Y4037335D01*
X7674498Y4042669D01*
X7669418Y4058163D01*
X7659004Y4068577D01*
X7643510Y4073657D01*
X7638176Y4073657D01*
X7622682Y4068577D01*
X7612268Y4058163D01*
X7606934Y4042669D01*
G36*
X9040672Y4413097D02*
G01*
X9040672Y4355490D01*
X9055100Y4355490D01*
X9055100Y4413097D01*
G37*
G36*
X9040672Y4019499D02*
G01*
X9040672Y3961892D01*
X9055100Y3961892D01*
X9055100Y4019499D01*
G37*
G36*
X8999880Y3997909D02*
G01*
X8999880Y3983482D01*
X9095892Y3983482D01*
X9095892Y3997909D01*
G37*
G36*
X9808362Y2743200D02*
G01*
X9681362Y2667000D01*
X9808362Y2590800D01*
G37*
D10*
X8570483Y814499D02*
G01*
X8570483Y560499D01*
X7554483Y560499D01*
X7554483Y814499D01*
X7744983Y814499D01*
D12*
X8570483Y814499D02*
G01*
X7744983Y814499D01*
D11*
X9093220Y1497754D02*
G01*
X8988216Y1392750D01*
X9142735Y1238232D02*
G01*
X9247738Y1343235D01*
X9247738Y1364787D02*
G01*
X9114772Y1497754D01*
X8752225Y1156759D02*
G01*
X8857228Y1261762D01*
X9011747Y1107244D02*
G01*
X8906743Y1002240D01*
X8885191Y1002240D02*
G01*
X8752225Y1135207D01*
X9281744Y1377238D02*
G01*
X9386747Y1482242D01*
X9232229Y1636760D02*
G01*
X9127225Y1531757D01*
X9127225Y1510205D02*
G01*
X9260192Y1377238D01*
X9622739Y1718233D02*
G01*
X9517735Y1613230D01*
X9363217Y1767748D02*
G01*
X9468220Y1872752D01*
X9489772Y1872752D02*
G01*
X9622739Y1739785D01*
X8518771Y1300106D02*
G01*
X8641494Y1175260D01*
X9449716Y1983483D01*
X9324870Y2106206D01*
X9231190Y2199886D02*
G01*
X9108467Y2324732D01*
X8300245Y1516509D01*
X8425091Y1393786D01*
X8518771Y1300106D02*
G01*
X8641494Y1175260D01*
X9449716Y1983483D01*
X9324870Y2106206D01*
X9231190Y2199886D02*
G01*
X9108467Y2324732D01*
X8300245Y1516509D01*
X8425091Y1393786D01*
X8876776Y4453430D02*
G01*
X8672560Y4453430D01*
X8672560Y4052618D01*
X8803370Y3921554D01*
X8876776Y3921554D01*
X8998188Y4452414D02*
G01*
X9199356Y4452414D01*
X9199356Y4050332D01*
X9070578Y3921554D01*
X8998188Y3921554D01*
X6578226Y991118D02*
G01*
X6578226Y842619D01*
X6796747Y842619D02*
G01*
X6796747Y991118D01*
X6781507Y1006358D02*
G01*
X6593466Y1006358D01*
X6578226Y508878D02*
G01*
X6578226Y657377D01*
X6796747Y657377D02*
G01*
X6796747Y508878D01*
X6781507Y493638D02*
G01*
X6593466Y493638D01*
D13*
X4617491Y1688594D02*
G01*
X4617491Y1774995D01*
X4617491Y1774995D02*
G01*
X4717493Y1774995D01*
X4757491Y1593598D02*
G01*
X4757491Y1656392D01*
X4617491Y1474995D02*
G01*
X4617491Y1561396D01*
X4617491Y1474995D02*
G01*
X4717493Y1474995D01*
X4617491Y2563594D02*
G01*
X4617491Y2649994D01*
X4617491Y2649994D02*
G01*
X4717493Y2649994D01*
X4757491Y2468598D02*
G01*
X4757491Y2531391D01*
X4617491Y2349995D02*
G01*
X4617491Y2436395D01*
X4617491Y2349995D02*
G01*
X4717493Y2349995D01*
X4617491Y3438593D02*
G01*
X4617491Y3524994D01*
X4617491Y3524994D02*
G01*
X4717493Y3524994D01*
X4757491Y3343597D02*
G01*
X4757491Y3406391D01*
X4617491Y3224994D02*
G01*
X4617491Y3311395D01*
X4617491Y3224994D02*
G01*
X4717493Y3224994D01*
X4617491Y4313590D02*
G01*
X4617491Y4399991D01*
X4617491Y4399991D02*
G01*
X4717493Y4399991D01*
X4757491Y4218594D02*
G01*
X4757491Y4281388D01*
X4617491Y4099991D02*
G01*
X4617491Y4186392D01*
X4617491Y4099991D02*
G01*
X4717493Y4099991D01*
X4617491Y813597D02*
G01*
X4617491Y899998D01*
X4617491Y899998D02*
G01*
X4717493Y899998D01*
X4757491Y718601D02*
G01*
X4757491Y781395D01*
X4617491Y599998D02*
G01*
X4617491Y686399D01*
X4617491Y599998D02*
G01*
X4717493Y599998D01*
D11*
X6845777Y1639877D02*
G01*
X6845777Y1511383D01*
X7029195Y1511383D01*
X7029195Y1639877D01*
X6845777Y1735117D02*
G01*
X6845777Y1863610D01*
X7029195Y1863610D01*
X7029195Y1735117D01*
X6845777Y2577373D02*
G01*
X6845777Y2448880D01*
X7029195Y2448880D01*
X7029195Y2577373D01*
X6845777Y2672613D02*
G01*
X6845777Y2801106D01*
X7029195Y2801106D01*
X7029195Y2672613D01*
X6845777Y3452373D02*
G01*
X6845777Y3323879D01*
X7029195Y3323879D01*
X7029195Y3452373D01*
X6845777Y3547612D02*
G01*
X6845777Y3676106D01*
X7029195Y3676106D01*
X7029195Y3547612D01*
X6845777Y4327370D02*
G01*
X6845777Y4198876D01*
X7029195Y4198876D01*
X7029195Y4327370D01*
X6845777Y4422609D02*
G01*
X6845777Y4551103D01*
X7029195Y4551103D01*
X7029195Y4422609D01*
X6845777Y764877D02*
G01*
X6845777Y636384D01*
X7029195Y636384D01*
X7029195Y764877D01*
X6845777Y860117D02*
G01*
X6845777Y988611D01*
X7029195Y988611D01*
X7029195Y860117D01*
X5747367Y660356D02*
G01*
X5747367Y964638D01*
X6252608Y964638D01*
X6252608Y660356D01*
X5747367Y660356D01*
X9592482Y2793992D02*
G01*
X9655982Y2730492D01*
X9655982Y2603492D01*
X9592482Y2539992D01*
X9211482Y2539992D01*
X9147982Y2603492D01*
X9147982Y2730492D01*
X9211482Y2793992D01*
X9147982Y2857492D01*
X9147982Y2984492D01*
X9211482Y3047992D01*
X9147982Y3111492D01*
X9147982Y3238492D01*
X9211482Y3301992D01*
X9592482Y3301992D01*
X9655982Y3238492D01*
X9655982Y3111492D01*
X9592482Y3047992D01*
X9655982Y2984492D01*
X9655982Y2857492D01*
X9592482Y2793992D01*
D14*
X9681382Y2666992D02*
G01*
X9808382Y2590792D01*
X9808382Y2743192D01*
X9681382Y2666992D01*
D11*
X7453223Y4712850D02*
G01*
X7453223Y4564352D01*
X7671744Y4564352D02*
G01*
X7671744Y4712850D01*
X7656504Y4728090D02*
G01*
X7468463Y4728090D01*
X7453223Y4230611D02*
G01*
X7453223Y4379109D01*
X7671744Y4379109D02*
G01*
X7671744Y4230611D01*
X7656504Y4215371D02*
G01*
X7468463Y4215371D01*
X8546744Y3918110D02*
G01*
X8546744Y4066608D01*
X8328223Y4066608D02*
G01*
X8328223Y3918110D01*
X8343463Y3902870D02*
G01*
X8531504Y3902870D01*
X8546744Y4400349D02*
G01*
X8546744Y4251850D01*
X8328223Y4251850D02*
G01*
X8328223Y4400349D01*
X8343463Y4415589D02*
G01*
X8531504Y4415589D01*
X6578226Y1866115D02*
G01*
X6578226Y1717616D01*
X6796747Y1717616D02*
G01*
X6796747Y1866115D01*
X6781507Y1881355D02*
G01*
X6593466Y1881355D01*
X6578226Y1383875D02*
G01*
X6578226Y1532374D01*
X6796747Y1532374D02*
G01*
X6796747Y1383875D01*
X6781507Y1368635D02*
G01*
X6593466Y1368635D01*
D13*
X7769400Y2874093D02*
G01*
X8186585Y2456908D01*
X8603772Y2874093D01*
X8186585Y3291281D01*
X7769400Y2874093D01*
D11*
X6578226Y2803613D02*
G01*
X6578226Y2655115D01*
X6796747Y2655115D02*
G01*
X6796747Y2803613D01*
X6781507Y2818853D02*
G01*
X6593466Y2818853D01*
X6578226Y2321374D02*
G01*
X6578226Y2469873D01*
X6796747Y2469873D02*
G01*
X6796747Y2321374D01*
X6781507Y2306134D02*
G01*
X6593466Y2306134D01*
X6578226Y3678613D02*
G01*
X6578226Y3530114D01*
X6796747Y3530114D02*
G01*
X6796747Y3678613D01*
X6781507Y3693853D02*
G01*
X6593466Y3693853D01*
X6578226Y3196374D02*
G01*
X6578226Y3344872D01*
X6796747Y3344872D02*
G01*
X6796747Y3196374D01*
X6781507Y3181134D02*
G01*
X6593466Y3181134D01*
X6578226Y4553610D02*
G01*
X6578226Y4405111D01*
X6796747Y4405111D02*
G01*
X6796747Y4553610D01*
X6781507Y4568850D02*
G01*
X6593466Y4568850D01*
X6578226Y4071371D02*
G01*
X6578226Y4219869D01*
X6796747Y4219869D02*
G01*
X6796747Y4071371D01*
X6781507Y4056131D02*
G01*
X6593466Y4056131D01*
D13*
X1554863Y2857614D02*
G01*
X4070098Y2857614D01*
X4070098Y2142375D01*
X1554863Y2142375D01*
X1554863Y2857614D01*
X3574727Y2857614D02*
G01*
X3574727Y2142375D01*
X2056559Y2857614D02*
G01*
X2056559Y2142375D01*
X4082481Y2499995D02*
G01*
X4249376Y2499995D01*
X1542481Y2499995D02*
G01*
X1375610Y2499995D01*
X1554863Y3732613D02*
G01*
X4070098Y3732613D01*
X4070098Y3017375D01*
X1554863Y3017375D01*
X1554863Y3732613D01*
X3574727Y3732613D02*
G01*
X3574727Y3017375D01*
X2056559Y3732613D02*
G01*
X2056559Y3017375D01*
X4082481Y3374994D02*
G01*
X4249376Y3374994D01*
X1542481Y3374994D02*
G01*
X1375610Y3374994D01*
X1554863Y4607610D02*
G01*
X4070098Y4607610D01*
X4070098Y3892372D01*
X1554863Y3892372D01*
X1554863Y4607610D01*
X3574727Y4607610D02*
G01*
X3574727Y3892372D01*
X2056559Y4607610D02*
G01*
X2056559Y3892372D01*
X4082481Y4249991D02*
G01*
X4249376Y4249991D01*
X1542481Y4249991D02*
G01*
X1375610Y4249991D01*
X1554863Y1107617D02*
G01*
X4070098Y1107617D01*
X4070098Y392379D01*
X1554863Y392379D01*
X1554863Y1107617D01*
X3574727Y1107617D02*
G01*
X3574727Y392379D01*
X2056559Y1107617D02*
G01*
X2056559Y392379D01*
X4082481Y749998D02*
G01*
X4249376Y749998D01*
X1542481Y749998D02*
G01*
X1375610Y749998D01*
D11*
X5747364Y1535356D02*
G01*
X5747364Y1839638D01*
X6252606Y1839638D01*
X6252606Y1535356D01*
X5747364Y1535356D01*
X5747367Y2410353D02*
G01*
X5747367Y2714635D01*
X6252608Y2714635D01*
X6252608Y2410353D01*
X5747367Y2410353D01*
X5747367Y3285352D02*
G01*
X5747367Y3589634D01*
X6252608Y3589634D01*
X6252608Y3285352D01*
X5747367Y3285352D01*
X5747367Y4160349D02*
G01*
X5747367Y4464631D01*
X6252608Y4464631D01*
X6252608Y4160349D01*
X5747367Y4160349D01*
D13*
X1554863Y1982614D02*
G01*
X4070098Y1982614D01*
X4070098Y1267376D01*
X1554863Y1267376D01*
X1554863Y1982614D01*
X3574727Y1982614D02*
G01*
X3574727Y1267376D01*
X2056559Y1982614D02*
G01*
X2056559Y1267376D01*
X4082481Y1624995D02*
G01*
X4249376Y1624995D01*
X1542481Y1624995D02*
G01*
X1375610Y1624995D01*
D11*
X7656161Y2223515D02*
G01*
X7565303Y2314374D01*
X7435606Y2184676D01*
X7526464Y2093818D01*
X7723507Y2156170D02*
G01*
X7814365Y2065312D01*
X7684668Y1935614D01*
X7593810Y2026472D01*
X4702370Y1404205D02*
G01*
X4573877Y1404205D01*
X4573877Y1220787D01*
X4702370Y1220787D01*
X4797610Y1404205D02*
G01*
X4926103Y1404205D01*
X4926103Y1220787D01*
X4797610Y1220787D01*
X5283281Y1389877D02*
G01*
X5283281Y1261384D01*
X5466699Y1261384D01*
X5466699Y1389877D01*
X5283281Y1485117D02*
G01*
X5283281Y1613611D01*
X5466699Y1613611D01*
X5466699Y1485117D01*
X5283281Y1764875D02*
G01*
X5283281Y1636382D01*
X5466699Y1636382D01*
X5466699Y1764875D01*
X5283281Y1860115D02*
G01*
X5283281Y1988609D01*
X5466699Y1988609D01*
X5466699Y1860115D01*
X5095781Y1389877D02*
G01*
X5095781Y1261384D01*
X5279199Y1261384D01*
X5279199Y1389877D01*
X5095781Y1485117D02*
G01*
X5095781Y1613611D01*
X5279199Y1613611D01*
X5279199Y1485117D01*
X6529197Y1547616D02*
G01*
X6529197Y1676110D01*
X6345778Y1676110D01*
X6345778Y1547616D01*
X6529197Y1452377D02*
G01*
X6529197Y1323883D01*
X6345778Y1323883D01*
X6345778Y1452377D01*
X5654197Y1485117D02*
G01*
X5654197Y1613611D01*
X5470779Y1613611D01*
X5470779Y1485117D01*
X5654197Y1389877D02*
G01*
X5654197Y1261384D01*
X5470779Y1261384D01*
X5470779Y1389877D01*
X5654197Y1860115D02*
G01*
X5654197Y1988609D01*
X5470779Y1988609D01*
X5470779Y1860115D01*
X5654197Y1764875D02*
G01*
X5654197Y1636382D01*
X5470779Y1636382D01*
X5470779Y1764875D01*
X5279199Y1860115D02*
G01*
X5279199Y1988609D01*
X5095781Y1988609D01*
X5095781Y1860115D01*
X5279199Y1764875D02*
G01*
X5279199Y1636382D01*
X5095781Y1636382D01*
X5095781Y1764875D01*
X6345778Y1827375D02*
G01*
X6345778Y1698881D01*
X6529197Y1698881D01*
X6529197Y1827375D01*
X6345778Y1922614D02*
G01*
X6345778Y2051108D01*
X6529197Y2051108D01*
X6529197Y1922614D01*
X6345778Y2702374D02*
G01*
X6345778Y2573881D01*
X6529197Y2573881D01*
X6529197Y2702374D01*
X6345778Y2797614D02*
G01*
X6345778Y2926107D01*
X6529197Y2926107D01*
X6529197Y2797614D01*
X5279199Y2735115D02*
G01*
X5279199Y2863608D01*
X5095781Y2863608D01*
X5095781Y2735115D01*
X5279199Y2639875D02*
G01*
X5279199Y2511381D01*
X5095781Y2511381D01*
X5095781Y2639875D01*
X5654197Y2735115D02*
G01*
X5654197Y2863608D01*
X5470779Y2863608D01*
X5470779Y2735115D01*
X5654197Y2639875D02*
G01*
X5654197Y2511381D01*
X5470779Y2511381D01*
X5470779Y2639875D01*
X5654197Y2360114D02*
G01*
X5654197Y2488608D01*
X5470779Y2488608D01*
X5470779Y2360114D01*
X5654197Y2264874D02*
G01*
X5654197Y2136381D01*
X5470779Y2136381D01*
X5470779Y2264874D01*
X6529197Y2422613D02*
G01*
X6529197Y2551107D01*
X6345778Y2551107D01*
X6345778Y2422613D01*
X6529197Y2327374D02*
G01*
X6529197Y2198880D01*
X6345778Y2198880D01*
X6345778Y2327374D01*
X5095781Y2264874D02*
G01*
X5095781Y2136381D01*
X5279199Y2136381D01*
X5279199Y2264874D01*
X5095781Y2360114D02*
G01*
X5095781Y2488608D01*
X5279199Y2488608D01*
X5279199Y2360114D01*
X5283281Y2639875D02*
G01*
X5283281Y2511381D01*
X5466699Y2511381D01*
X5466699Y2639875D01*
X5283281Y2735115D02*
G01*
X5283281Y2863608D01*
X5466699Y2863608D01*
X5466699Y2735115D01*
X5283281Y2264874D02*
G01*
X5283281Y2136381D01*
X5466699Y2136381D01*
X5466699Y2264874D01*
X5283281Y2360114D02*
G01*
X5283281Y2488608D01*
X5466699Y2488608D01*
X5466699Y2360114D01*
X4702370Y2279205D02*
G01*
X4573877Y2279205D01*
X4573877Y2095787D01*
X4702370Y2095787D01*
X4797610Y2279205D02*
G01*
X4926103Y2279205D01*
X4926103Y2095787D01*
X4797610Y2095787D01*
X6345778Y3577371D02*
G01*
X6345778Y3448878D01*
X6529197Y3448878D01*
X6529197Y3577371D01*
X6345778Y3672611D02*
G01*
X6345778Y3801104D01*
X6529197Y3801104D01*
X6529197Y3672611D01*
X5279199Y3610112D02*
G01*
X5279199Y3738605D01*
X5095781Y3738605D01*
X5095781Y3610112D01*
X5279199Y3514872D02*
G01*
X5279199Y3386378D01*
X5095781Y3386378D01*
X5095781Y3514872D01*
X5654197Y3610112D02*
G01*
X5654197Y3738605D01*
X5470779Y3738605D01*
X5470779Y3610112D01*
X5654197Y3514872D02*
G01*
X5654197Y3386378D01*
X5470779Y3386378D01*
X5470779Y3514872D01*
X5654197Y3235114D02*
G01*
X5654197Y3363607D01*
X5470779Y3363607D01*
X5470779Y3235114D01*
X5654197Y3139874D02*
G01*
X5654197Y3011380D01*
X5470779Y3011380D01*
X5470779Y3139874D01*
X6529197Y3297613D02*
G01*
X6529197Y3426106D01*
X6345778Y3426106D01*
X6345778Y3297613D01*
X6529197Y3202373D02*
G01*
X6529197Y3073880D01*
X6345778Y3073880D01*
X6345778Y3202373D01*
X5095781Y3139874D02*
G01*
X5095781Y3011380D01*
X5279199Y3011380D01*
X5279199Y3139874D01*
X5095781Y3235114D02*
G01*
X5095781Y3363607D01*
X5279199Y3363607D01*
X5279199Y3235114D01*
X5283281Y3514872D02*
G01*
X5283281Y3386378D01*
X5466699Y3386378D01*
X5466699Y3514872D01*
X5283281Y3610112D02*
G01*
X5283281Y3738605D01*
X5466699Y3738605D01*
X5466699Y3610112D01*
X5283281Y3139874D02*
G01*
X5283281Y3011380D01*
X5466699Y3011380D01*
X5466699Y3139874D01*
X5283281Y3235114D02*
G01*
X5283281Y3363607D01*
X5466699Y3363607D01*
X5466699Y3235114D01*
X4702370Y3154202D02*
G01*
X4573877Y3154202D01*
X4573877Y2970784D01*
X4702370Y2970784D01*
X4797610Y3154202D02*
G01*
X4926103Y3154202D01*
X4926103Y2970784D01*
X4797610Y2970784D01*
X6345778Y4452371D02*
G01*
X6345778Y4323877D01*
X6529197Y4323877D01*
X6529197Y4452371D01*
X6345778Y4547610D02*
G01*
X6345778Y4676104D01*
X6529197Y4676104D01*
X6529197Y4547610D01*
X5279199Y4485111D02*
G01*
X5279199Y4613605D01*
X5095781Y4613605D01*
X5095781Y4485111D01*
X5279199Y4389871D02*
G01*
X5279199Y4261378D01*
X5095781Y4261378D01*
X5095781Y4389871D01*
X5654197Y4485111D02*
G01*
X5654197Y4613605D01*
X5470779Y4613605D01*
X5470779Y4485111D01*
X5654197Y4389871D02*
G01*
X5654197Y4261378D01*
X5470779Y4261378D01*
X5470779Y4389871D01*
X5654197Y4110111D02*
G01*
X5654197Y4238604D01*
X5470779Y4238604D01*
X5470779Y4110111D01*
X5654197Y4014871D02*
G01*
X5654197Y3886377D01*
X5470779Y3886377D01*
X5470779Y4014871D01*
X6529197Y4172610D02*
G01*
X6529197Y4301103D01*
X6345778Y4301103D01*
X6345778Y4172610D01*
X6529197Y4077370D02*
G01*
X6529197Y3948877D01*
X6345778Y3948877D01*
X6345778Y4077370D01*
X5095781Y4014871D02*
G01*
X5095781Y3886377D01*
X5279199Y3886377D01*
X5279199Y4014871D01*
X5095781Y4110111D02*
G01*
X5095781Y4238604D01*
X5279199Y4238604D01*
X5279199Y4110111D01*
X5283281Y4389871D02*
G01*
X5283281Y4261378D01*
X5466699Y4261378D01*
X5466699Y4389871D01*
X5283281Y4485111D02*
G01*
X5283281Y4613605D01*
X5466699Y4613605D01*
X5466699Y4485111D01*
X5283281Y4014871D02*
G01*
X5283281Y3886377D01*
X5466699Y3886377D01*
X5466699Y4014871D01*
X5283281Y4110111D02*
G01*
X5283281Y4238604D01*
X5466699Y4238604D01*
X5466699Y4110111D01*
X4702370Y4029202D02*
G01*
X4573877Y4029202D01*
X4573877Y3845783D01*
X4702370Y3845783D01*
X4797610Y4029202D02*
G01*
X4926103Y4029202D01*
X4926103Y3845783D01*
X4797610Y3845783D01*
X4702370Y529209D02*
G01*
X4573877Y529209D01*
X4573877Y345790D01*
X4702370Y345790D01*
X4797610Y529209D02*
G01*
X4926103Y529209D01*
X4926103Y345790D01*
X4797610Y345790D01*
D13*
X8246887Y4876843D02*
G01*
X8246887Y3816642D01*
X7767078Y3816642D01*
X7767078Y4876843D01*
X8246379Y4876843D01*
X8246887Y4876843D01*
X8186971Y3816746D02*
G01*
X8186971Y4876739D01*
D11*
G75*
G01*
X9247739Y1343236D02*
G03*
X9247739Y1364788I-10777J10776D01*
G75*
G01*
X9114772Y1497754D02*
G03*
X9093220Y1497754I-10776J-10776D01*
G75*
G01*
X8906744Y1002241D02*
G02*
X8885192Y1002241I-10776J10776D01*
G75*
G01*
X8752225Y1135207D02*
G02*
X8752225Y1156759I10777J10776D01*
G75*
G01*
X9127226Y1531757D02*
G03*
X9127226Y1510205I10777J-10776D01*
G75*
G01*
X9260192Y1377239D02*
G03*
X9281744Y1377239I10776J10776D01*
G75*
G01*
X9468221Y1872752D02*
G02*
X9489773Y1872752I10776J-10777D01*
G75*
G01*
X9622739Y1739786D02*
G02*
X9622739Y1718234I-10776J-10776D01*
G75*
G01*
X6796748Y991118D02*
G03*
X6781508Y1006358I-15240J0D01*
G75*
G01*
X6593467Y1006358D02*
G03*
X6578227Y991118I0J-15240D01*
G75*
G01*
X6796748Y508879D02*
G02*
X6781508Y493639I-15240J0D01*
G75*
G01*
X6593467Y493639D02*
G02*
X6578227Y508879I0J15240D01*
G75*
G01*
X7671745Y4712851D02*
G03*
X7656505Y4728091I-15240J0D01*
G75*
G01*
X7468464Y4728091D02*
G03*
X7453224Y4712851I0J-15240D01*
G75*
G01*
X7671745Y4230611D02*
G02*
X7656505Y4215371I-15240J0D01*
G75*
G01*
X7468464Y4215371D02*
G02*
X7453224Y4230611I0J15240D01*
G75*
G01*
X8328223Y3918110D02*
G03*
X8343463Y3902870I15240J0D01*
G75*
G01*
X8531504Y3902870D02*
G03*
X8546744Y3918110I0J15240D01*
G75*
G01*
X8328223Y4400349D02*
G02*
X8343463Y4415589I15240J0D01*
G75*
G01*
X8531504Y4415589D02*
G02*
X8546744Y4400349I0J-15240D01*
G75*
G01*
X6796748Y1866115D02*
G03*
X6781508Y1881355I-15240J0D01*
G75*
G01*
X6593467Y1881355D02*
G03*
X6578227Y1866115I0J-15240D01*
G75*
G01*
X6796748Y1383876D02*
G02*
X6781508Y1368636I-15240J0D01*
G75*
G01*
X6593467Y1368636D02*
G02*
X6578227Y1383876I0J15240D01*
D15*
G75*
G01*
X8209036Y2321809D02*
G03*
X8209217Y2321989I10697J-10517D01*
D16*
G75*
G01*
X8172397Y2577208D02*
G03*
X8172577Y2577386I14131J-14152D01*
D11*
G75*
G01*
X6796748Y2803614D02*
G03*
X6781508Y2818854I-15240J0D01*
G75*
G01*
X6593467Y2818854D02*
G03*
X6578227Y2803614I0J-15240D01*
G75*
G01*
X6796748Y2321375D02*
G02*
X6781508Y2306135I-15240J0D01*
G75*
G01*
X6593467Y2306135D02*
G02*
X6578227Y2321375I0J15240D01*
G75*
G01*
X6796748Y3678613D02*
G03*
X6781508Y3693853I-15240J0D01*
G75*
G01*
X6593467Y3693853D02*
G03*
X6578227Y3678613I0J-15240D01*
G75*
G01*
X6796748Y3196374D02*
G02*
X6781508Y3181134I-15240J0D01*
G75*
G01*
X6593467Y3181134D02*
G02*
X6578227Y3196374I0J15240D01*
G75*
G01*
X6796748Y4553610D02*
G03*
X6781508Y4568850I-15240J0D01*
G75*
G01*
X6593467Y4568850D02*
G03*
X6578227Y4553610I0J-15240D01*
G75*
G01*
X6796748Y4071371D02*
G02*
X6781508Y4056131I-15240J0D01*
G75*
G01*
X6593467Y4056131D02*
G02*
X6578227Y4071371I0J15240D01*
D16*
G75*
G01*
X7704480Y4623740D02*
G03*
X7704480Y4623486I-19999J-127D01*
D15*
G75*
G01
X5824499Y735584D02*
G03X5824499Y735584I-15011J0D01*
G75*
G01
X5749849Y535254D02*
G03X5749849Y535254I-15011J0D01*
G75*
G01
X5824499Y1610589D02*
G03X5824499Y1610589I-15011J0D01*
G75*
G01
X5749849Y1410259D02*
G03X5749849Y1410259I-15011J0D01*
G75*
G01
X5824499Y2485593D02*
G03X5824499Y2485593I-15011J0D01*
G75*
G01
X5749849Y2285263D02*
G03X5749849Y2285263I-15011J0D01*
G75*
G01
X5824499Y3360572D02*
G03X5824499Y3360572I-15011J0D01*
G75*
G01
X5749849Y3160243D02*
G03X5749849Y3160243I-15011J0D01*
G75*
G01
X5824499Y4235577D02*
G03X5824499Y4235577I-15011J0D01*
G75*
G01
X5749849Y4035247D02*
G03X5749849Y4035247I-15011J0D01*
M02*
