G04 Layer: BottomSolderMaskLayer*
G04 EasyEDA v6.5.9, 2022-07-21 16:41:51*
G04 b4f09f4bc33d498599fb5b0af984a39b,0f63320d19d842adba92ba3d91eb0df2,10*
G04 Gerber Generator version 0.2*
G04 Scale: 100 percent, Rotated: No, Reflected: No *
G04 Dimensions in millimeters *
G04 leading zeros omitted , absolute positions ,4 integer and 5 decimal *
%FSLAX45Y45*%
%MOMM*%

%ADD10C,1.8796*%
%ADD11C,1.9016*%
%ADD12C,1.6764*%
%ADD13C,1.9812*%

%LPD*%
D10*
X337896Y3130981D02*
G01*
X287096Y3130981D01*
X337896Y2876981D02*
G01*
X287096Y2876981D01*
X337896Y2622981D02*
G01*
X287096Y2622981D01*
X337896Y2368981D02*
G01*
X287096Y2368981D01*
X337896Y2114981D02*
G01*
X287096Y2114981D01*
D11*
X7977982Y4346752D02*
G01*
X7897982Y4346752D01*
X7976991Y4092727D02*
G01*
X7896992Y4092727D01*
G36*
X193039Y3291078D02*
G01*
X193039Y3479037D01*
X431800Y3479037D01*
X431800Y3291078D01*
G37*
G36*
X7597647Y603757D02*
G01*
X7597647Y771397D01*
X7765288Y771397D01*
X7765288Y603757D01*
G37*
D12*
G01*
X7935493Y687501D03*
G01*
X8189493Y687501D03*
G01*
X8443493Y687501D03*
D13*
G01*
X9528987Y2667000D03*
G01*
X9528987Y2921000D03*
G01*
X9528987Y3175000D03*
G01*
X9274987Y2667000D03*
G01*
X9274987Y2921000D03*
G01*
X9274987Y3175000D03*
D11*
G01*
X1262481Y2499995D03*
G01*
X4362475Y2499995D03*
G01*
X1262481Y3374974D03*
G01*
X4362475Y3374974D03*
G01*
X1262481Y4250004D03*
G01*
X4362475Y4250004D03*
G01*
X1262481Y750011D03*
G01*
X4362475Y750011D03*
G01*
X1262481Y1624990D03*
G01*
X4362475Y1624990D03*
G36*
X7802879Y4505705D02*
G01*
X7802879Y4695697D01*
X8073136Y4695697D01*
X8073136Y4505705D01*
G37*
M02*
