G04 Layer: BoardOutlineLayer*
G04 EasyEDA v6.5.9, 2022-07-21 16:41:51*
G04 b4f09f4bc33d498599fb5b0af984a39b,0f63320d19d842adba92ba3d91eb0df2,10*
G04 Gerber Generator version 0.2*
G04 Scale: 100 percent, Rotated: No, Reflected: No *
G04 Dimensions in millimeters *
G04 leading zeros omitted , absolute positions ,4 integer and 5 decimal *
%FSLAX45Y45*%
%MOMM*%

%ADD10C,0.2540*%
D10*
X1625005Y4562482D02*
G01*
X1625005Y3937474D01*
X3999991Y3937474D01*
X3999991Y4562482D01*
X1625005Y4562482D01*
X9999985Y4999992D02*
G01*
X9999985Y0D01*
X3374900Y0D01*
X4812494Y4999992D02*
G01*
X9999985Y4999992D01*
X1624998Y3687490D02*
G01*
X1624998Y3062490D01*
X3999991Y3062490D01*
X3999991Y3687490D01*
X1624998Y3687490D01*
X1625033Y2812486D02*
G01*
X1625033Y2187496D01*
X4000002Y2187496D01*
X4000002Y2812486D01*
X1625033Y2812486D01*
X1625000Y1937489D02*
G01*
X1625000Y1312499D01*
X3999997Y1312499D01*
X3999997Y1937489D01*
X1625000Y1937489D01*
X1624998Y1062497D02*
G01*
X1624998Y437499D01*
X3999991Y437499D01*
X3999991Y1062497D01*
X1624998Y1062497D01*
X3374994Y0D02*
G01*
X93Y0D01*
X0Y0D02*
G01*
X0Y4999992D01*
X1000000Y4999992D01*
X2249995Y4999992D01*
X2249931Y4999989D02*
G01*
X4366259Y4999989D01*
X4812538Y4999989D01*
G75*
G01
X562508Y4624984D02*
G03X562508Y4624984I-187503J0D01*
G75*
G01
X562508Y375006D02*
G03X562508Y375006I-187503J0D01*
G75*
G01
X9812477Y375006D02*
G03X9812477Y375006I-187503J0D01*
G75*
G01
X9812477Y4624984D02*
G03X9812477Y4624984I-187503J0D01*

%LPD*%
M02*
